<svg id="Layer_1" data-name="Layer 1" xmlns="http://www.w3.org/2000/svg" viewBox="0 0 119.54 128.13"><defs><style>.cls-1{fill:#50bf9e;}</style></defs><title>Logo_f66d53c1-082b-43a2-bcbb-01605afa0408</title><path class="cls-1" d="M25,63.14l-.3-.46A6.62,6.62,0,0,1,24,61c0-.17-.23-.2-.39-.2a2,2,0,0,1-3.43-.11.67.67,0,0,1,1.16-.65c.18.32.2.37.68.39.32,0,.52-.46.52-.47l.12-.32L23,59.6a1.77,1.77,0,0,1,2.29,1.06,7,7,0,0,0,.28.77,3.36,3.36,0,0,0,1.54-2.58l0-.19a3.94,3.94,0,0,1,2.07-2.44A2.76,2.76,0,0,1,31,56.16a.67.67,0,0,1-.41,1.27,1.44,1.44,0,0,0-.86,0,2.74,2.74,0,0,0-1.27,1.45l0,.16a4.63,4.63,0,0,1-2.88,3.86Z"/><path class="cls-1" d="M19.44,59.67l-.22,0A1.19,1.19,0,0,1,18.13,59c-.28-.64.18-1.3.6-1.77a1.64,1.64,0,0,0-.26-.06,1.08,1.08,0,0,1-.87-.48.92.92,0,0,1,0-.84,13.27,13.27,0,0,1,1.09-1.74c.27-.4.64-.94.7-1.08.15-.33.67-1.23,1.52-2.69l.64-1.09a8.27,8.27,0,0,0,1.24-2.83.66.66,0,0,1,1.3.28,9.49,9.49,0,0,1-1.39,3.22L22,51c-.59,1-1.33,2.27-1.45,2.56a11.5,11.5,0,0,1-.81,1.28c-.23.34-.51.75-.71,1.07a1.54,1.54,0,0,1,.56.27,1.27,1.27,0,0,1,.26,1.73L19.8,58a3.82,3.82,0,0,0-.27.31c1.35,0,1.87-1.55,1.89-1.62a.67.67,0,0,1,1.27.39A3.43,3.43,0,0,1,19.44,59.67Z"/><path class="cls-1" d="M28.35,47.25a1.91,1.91,0,0,1-.63-.15L27.57,47l-.11-.13a10.39,10.39,0,0,0-2.95-2.43l0,0a1,1,0,0,1-.56-1.07c.19-.67,1-.65,1.43-.65a14,14,0,0,1,3.74.46.67.67,0,1,1-.36,1.28,10.5,10.5,0,0,0-2.29-.36,12.64,12.64,0,0,1,1.94,1.8c.45.06.75-.55.76-.58a.66.66,0,1,1,1.2.57A2.23,2.23,0,0,1,28.35,47.25Z"/><path class="cls-1" d="M22.78,44.41A.66.66,0,0,1,22.2,44c-1.12-2.5-2.46-7.58,3.38-10.81a.67.67,0,0,1,.64,1.16c-6.22,3.44-2.92,8.86-2.81,9.11a.67.67,0,0,1-.64.93Z"/><path class="cls-1" d="M25.86,42.08a.67.67,0,0,1-.62-.56c0-.05-.74-5.2,3.91-7.46a.66.66,0,0,1,.58,1.2c-3.77,1.83-3.18,6-3.17,6.06a.66.66,0,0,1-.56.76Z"/><path class="cls-1" d="M81.25,99.38a2.88,2.88,0,0,1-1-.2,1.05,1.05,0,0,1-.56-.81c-.19-1.18,1-3.39,2.94-5.34-.39.24-.78.46-1.16.67s-.64.36-.94.54c-1.14.7-4.25.56-4.28.55a1,1,0,0,1-.88-.76,2.73,2.73,0,0,1,.33-2.66,8.61,8.61,0,0,1,1.32-1,6.73,6.73,0,0,0,1.41-1.11A28,28,0,0,0,81.29,84a91.79,91.79,0,0,0-5.06-9.22c-.87-.48-1-2.28-1.05-3.32a.67.67,0,0,1,1.33,0,5.61,5.61,0,0,0,.38,2.19c.29.15,1.14.93,5.72,10l.13.25-.09.27A27.55,27.55,0,0,1,79.49,90a6.9,6.9,0,0,1-1.77,1.46,8.16,8.16,0,0,0-1.11.82,1.57,1.57,0,0,0-.08,1.17,9.33,9.33,0,0,0,3.25-.37c.32-.19.65-.38,1-.56a18.32,18.32,0,0,0,1.75-1.07s.44-.37,1.19-2.89a1,1,0,0,1,2,.34,7.16,7.16,0,0,1-1.94,4.82A9.37,9.37,0,0,0,81,98a8.38,8.38,0,0,0,3.57-.46,11.47,11.47,0,0,1,1-1.73l.34-.47.51.27a.71.71,0,0,0,.23.08,1,1,0,0,0,.12-.43,1.27,1.27,0,0,1,.71-.95,2.8,2.8,0,0,0,.68-.59c.07-.09-.17-.66-.26-.87a3.21,3.21,0,0,1-.36-1.38,28.73,28.73,0,0,1,1.27-4.25c.47-1.4,1-2.85,1.07-3.4s.12-.61-.4-1.15c-.22-.23-.5-.51-.82-.91-1.32-1.63-1.41-5.77-.94-8.92.23-1.56,1.69-4.75,4.32-9.48a11.57,11.57,0,0,1,.58-1.08c.09-.14.17-.28.25-.4l0-.06h0c.25-.35.51-.52.92-.28s.36.63.21.95h0l0,0-.13.25L93.21,64a11.8,11.8,0,0,0-1,4.1,6.35,6.35,0,0,1-.13.93.78.78,0,0,0,.2.33,7.93,7.93,0,0,1,1.19-2.88c1.66-3.13,4.43-8.37,1.73-12.51-1.41-2.15-5.73-7.31-15.4-8.77-2.94-.44-5.92.48-8.54,1.29a27.2,27.2,0,0,1-3.34.89,5.82,5.82,0,0,1-4.85-1c-.43-.26-.93-.55-1.54-.86-2.41-1.2-7.79-2.5-10.73-1.81a18.06,18.06,0,0,1-11.5-.47A15.13,15.13,0,0,0,32.8,42a5.36,5.36,0,0,0-2.65.65l-.09,0a.66.66,0,1,1-.61-1.18l.08,0a6.69,6.69,0,0,1,3.26-.81,16.49,16.49,0,0,1,7,1.4,16.88,16.88,0,0,0,10.73.42c3.27-.77,9,.6,11.62,1.91.66.33,1.18.63,1.63.9a4.57,4.57,0,0,0,3.95.8,26.39,26.39,0,0,0,3.16-.85c2.63-.81,5.9-1.83,9.13-1.34,3.4.51,11.8,2.44,16.32,9.35,3.14,4.8.13,10.47-1.66,13.86a10.49,10.49,0,0,0-1,2.27c0,.89-.35,1.26-.66,1.4a1.32,1.32,0,0,1-1.43-.3,1.85,1.85,0,0,1-.73-1.77,1.55,1.55,0,0,0,0-.19A18.55,18.55,0,0,0,89,73.07c-.5,3.35-.22,6.82.65,7.89.29.36.53.6.74.82a2.12,2.12,0,0,1,.75,2.36c-.14.62-.61,2-1.11,3.53s-1.18,3.52-1.2,3.9a2.65,2.65,0,0,0,.26.79,2.14,2.14,0,0,1,.09,2.2,4,4,0,0,1-1,.88l-.15.11a1.81,1.81,0,0,1-.78,1.34,1.32,1.32,0,0,1-.92.14,7.83,7.83,0,0,0-.62,1.12,1.54,1.54,0,0,1-1,.78A10.45,10.45,0,0,1,81.25,99.38Zm3.31-1.82h0ZM76.32,74.82h0ZM92.08,69Z"/><path class="cls-1" d="M65.18,78.21c-4.68-.24-6.78-1.76-7.54-2.52a7.8,7.8,0,0,1-3.92-.18.66.66,0,0,1,.38-1.27h0a5.84,5.84,0,0,0,3.43.07l.53-.26.32.5s1.78,2.47,8.49,2.37,8.48-2.7,8.49-2.73a.67.67,0,1,1,1.14.69c-.08.13-2.06,3.26-9.61,3.37C66.3,78.25,65.72,78.24,65.18,78.21Z"/><path class="cls-1" d="M49.06,86.36h0a5,5,0,0,1-4.09-2.55,8.55,8.55,0,0,1-.85-5.48,5.34,5.34,0,0,0,0-1.49c-.07-.28-1-.74-1.7-1-1.4-.66-3.13-1.49-3.7-3.09-.36-1-.68-2.35-1-3.64a16.32,16.32,0,0,0-1.12-3.69,4.32,4.32,0,0,0-.52-.45c-.93-.73-2.48-1.95-4.94-6.47a.67.67,0,0,1,1.17-.63c2.33,4.29,3.74,5.4,4.59,6.06a5.26,5.26,0,0,1,.69.61c.53.58.89,2,1.43,4.27.3,1.26.61,2.56,1,3.51s1.78,1.74,3,2.33,2.2,1,2.42,1.93a6,6,0,0,1,0,1.93,7.33,7.33,0,0,0,.68,4.69,3.64,3.64,0,0,0,2.39,1.8,3.09,3.09,0,0,0,1.79-.06,25.16,25.16,0,0,0,2.21-5.2,14.27,14.27,0,0,0-.24-2.22A11.81,11.81,0,0,1,52,75.53a6.08,6.08,0,0,1,1-2.3c.17-.3.41-.7.48-.87a7.86,7.86,0,0,0-1-1.82.67.67,0,0,1,1.11-.74c.89,1.34,1.28,2.28,1.16,2.81a5.34,5.34,0,0,1-.64,1.29,7.18,7.18,0,0,0-.83,1.7,12.35,12.35,0,0,0,.19,1.67,14.48,14.48,0,0,1,.25,2.49c-.07,1.27-2.08,5.41-2.5,6A2.84,2.84,0,0,1,49.06,86.36Zm4.46-14h0Z"/><path class="cls-1" d="M44.67,98.21c-.76,0-1.31-.11-1.32-.12a.83.83,0,0,1-.58-.46c-.2-.44,0-.87.3-1.42a6.38,6.38,0,0,0,.48-1.12,2.52,2.52,0,0,1,.81-1.36,1.24,1.24,0,0,0,.33-.42c.22-.43.28-.55.55-.72a4.41,4.41,0,0,0,.82-.74c.69-.71.5-3.12.15-4.61a.66.66,0,0,1,1.29-.31c.1.44,1,4.32-.48,5.84a5.89,5.89,0,0,1-1,.92l-.11.22a2.55,2.55,0,0,1-.62.8,1.24,1.24,0,0,0-.43.74,7.54,7.54,0,0,1-.58,1.36l0,0c1.16.08,3.33,0,3.72-.31a3.26,3.26,0,0,0,.35-.86c.08-.3.23-.85.85-.9a1.7,1.7,0,0,1,.53.07,2.3,2.3,0,0,0,.42.07v-.05A4.26,4.26,0,0,0,50,93.55a5.19,5.19,0,0,1-.09-1.1c0-.62-.06-3.16-.09-4.08a.66.66,0,0,1,1.33-.05c0,.14.13,3.39.09,4.2a4,4,0,0,0,.07.82,5.49,5.49,0,0,1,.06,1.7,1.35,1.35,0,0,1-.55,1,1.69,1.69,0,0,1-1.34.16,4.37,4.37,0,0,1-.46,1.06C48.49,98.23,46.17,98.29,44.67,98.21Zm3.28-1.66Z"/><path class="cls-1" d="M52.46,96.16a.66.66,0,0,1,0-1.33c1.92-.09,2-.76,2-1.2v-.06c.05-1,1-1.06,1.57-1.07h.25a6.2,6.2,0,0,0-.5-2.81A9.17,9.17,0,0,1,55.9,84c.31-.74,1.21-5,1.73-7.7a.67.67,0,0,1,1.31.26c-.14.7-1.35,6.85-1.81,8A7.86,7.86,0,0,0,57,89.21c.11.3,1.07,3,.34,4.09a1.07,1.07,0,0,1-.85.5l-.45,0h-.28c0,.68-.33,2.19-3.23,2.33Z"/><path class="cls-1" d="M52.89,90.89l-.17,0a.67.67,0,0,1-.43-.84,15.9,15.9,0,0,0-.12-3.58.66.66,0,1,1,1.32-.15,15.67,15.67,0,0,1,.06,4.14A.67.67,0,0,1,52.89,90.89Z"/><path class="cls-1" d="M26.35,50.94a.67.67,0,0,1-.21-1.28A1.4,1.4,0,0,0,27,48.23a.67.67,0,0,1,.6-.72.66.66,0,0,1,.73.59,2.73,2.73,0,0,1-1.64,2.8A.66.66,0,0,1,26.35,50.94Z"/><path class="cls-1" d="M26.17,48.09a1,1,0,0,1-1.25,1s-1.14-.23,0-1.26Z"/><path class="cls-1" d="M40.79,63.36a.66.66,0,0,1-.61-.49A8.35,8.35,0,0,1,42,55.38a13.66,13.66,0,0,1,3-2.8.67.67,0,0,1,.72,1.12h0c-.06,0-5.63,3.69-4.28,8.82a.67.67,0,0,1-.68.83Z"/><path class="cls-1" d="M84.63,82.36a.66.66,0,0,1-.54-.33,22.49,22.49,0,0,1-2.32-14.52.67.67,0,1,1,1.3.26,21.53,21.53,0,0,0,2.16,13.59.67.67,0,0,1-.61,1Z"/><path class="cls-1" d="M107.09,31.55,79,31.7A.84.84,0,0,1,79,30l28.05-.15a.84.84,0,0,1,0,1.69Z"/><path class="cls-1" d="M69,31.75l-17.84.09a.84.84,0,1,1,0-1.69L69,30.07a.84.84,0,1,1,0,1.69Z"/><path class="cls-1" d="M42.71,31.89l-30.41.16a.84.84,0,0,1,0-1.69l30.41-.16a.84.84,0,0,1,0,1.69Z"/><path class="cls-1" d="M96.74,25.59l-47.18.25a.84.84,0,1,1,0-1.69l47.18-.25a.84.84,0,1,1,0,1.69Z"/><path class="cls-1" d="M41.13,25.88,22.59,26a.84.84,0,0,1,0-1.69l18.54-.1a.84.84,0,0,1,0,1.69Z"/><path class="cls-1" d="M87.75,19.62l-9.91.05a.84.84,0,0,1,0-1.69l9.91-.05a.84.84,0,1,1,0,1.69Z"/><path class="cls-1" d="M69.93,19.71l-38.42.2a.84.84,0,0,1,0-1.69L69.92,18a.84.84,0,1,1,0,1.69Z"/><path class="cls-1" d="M80.35,13.64l-18.79.1a.84.84,0,0,1,0-1.69L80.34,12a.84.84,0,0,1,0,1.69Z"/><path class="cls-1" d="M51.51,13.79l-12.66.07a.84.84,0,1,1,0-1.69L51.5,12.1a.84.84,0,0,1,0,1.69Z"/><path class="cls-1" d="M72.1,7.66,47,7.79a.84.84,0,0,1,0-1.69L72.09,6a.84.84,0,1,1,0,1.69Z"/><path class="cls-1" d="M63.85,1.69l-8.64,0a.84.84,0,1,1,0-1.69l8.64,0a.84.84,0,0,1,0,1.69Z"/><path class="cls-1" d="M38.59,98.12l-25.94.14a.84.84,0,0,1,0-1.69l25.94-.14a.84.84,0,0,1,0,1.69Z"/><path class="cls-1" d="M75.37,97.93,60.07,98a.84.84,0,0,1,0-1.69l15.3-.08a.84.84,0,0,1,0,1.69Z"/><path class="cls-1" d="M107.44,97.76l-13.24.07a.84.84,0,0,1,0-1.69l13.24-.07a.84.84,0,1,1,0,1.69Z"/><path class="cls-1" d="M41.8,104.12l-18.8.1a.84.84,0,0,1,0-1.69l18.8-.1a.84.84,0,1,1,0,1.69Z"/><path class="cls-1" d="M64.86,104l-14.69.08a.84.84,0,0,1,0-1.69l14.69-.08a.84.84,0,0,1,0,1.69Z"/><path class="cls-1" d="M97.15,103.83l-26.5.14a.84.84,0,0,1,0-1.69l26.5-.14a.84.84,0,0,1,0,1.69Z"/><path class="cls-1" d="M69,110l-37,.19a.84.84,0,0,1,0-1.69l37-.19A.84.84,0,1,1,69,110Z"/><path class="cls-1" d="M88.23,109.9l-8.64,0a.84.84,0,1,1,0-1.69l8.64,0a.84.84,0,0,1,0,1.69Z"/><path class="cls-1" d="M50.21,116.12l-10.82.06a.84.84,0,1,1,0-1.69l10.82-.06a.84.84,0,1,1,0,1.69Z"/><path class="cls-1" d="M80.89,116l-18.51.1a.84.84,0,0,1,0-1.69l18.51-.1a.84.84,0,0,1,0,1.69Z"/><path class="cls-1" d="M61.83,122.08l-14.2.07a.84.84,0,1,1,0-1.69l14.2-.07a.84.84,0,0,1,0,1.69Z"/><path class="cls-1" d="M72.7,122l-5.07,0a.84.84,0,0,1,0-1.69l5.07,0a.84.84,0,0,1,0,1.69Z"/><path class="cls-1" d="M64.52,128.08l-8.64,0a.84.84,0,0,1,0-1.69l8.64,0a.84.84,0,1,1,0,1.69Z"/><path class="cls-1" d="M115.57,49.56l-17,.09a.84.84,0,0,1,0-1.69l17-.09a.84.84,0,0,1,0,1.69Z"/><path class="cls-1" d="M16.56,50.09l-10.25.05a.84.84,0,0,1,0-1.69l10.25-.05a.84.84,0,1,1,0,1.69Z"/><path class="cls-1" d="M6.31,50.14l-3.71,0a.84.84,0,0,1,0-1.69l3.71,0a.84.84,0,0,1,0,1.69Z"/><path class="cls-1" d="M112.87,43.56,91,43.68A.84.84,0,0,1,91,42l21.9-.12a.84.84,0,1,1,0,1.69Z"/><path class="cls-1" d="M11.48,44.09l-10.6.06a.84.84,0,0,1,0-1.69l10.6-.06a.84.84,0,1,1,0,1.69Z"/><path class="cls-1" d="M114.67,37.53l-19,.1a.84.84,0,0,1,0-1.69l19-.1a.84.84,0,0,1,0,1.69Z"/><path class="cls-1" d="M85.33,37.69l-18,.09a.84.84,0,1,1,0-1.69l18-.09a.84.84,0,0,1,0,1.69Z"/><path class="cls-1" d="M60.42,37.82l-21.17.11a.84.84,0,0,1,0-1.69l21.17-.11a.84.84,0,0,1,0,1.69Z"/><path class="cls-1" d="M18.18,38,.85,38.13a.84.84,0,0,1,0-1.69l17.33-.09a.84.84,0,1,1,0,1.69Z"/><path class="cls-1" d="M118.7,55.57l-16.58.09a.84.84,0,0,1,0-1.69l16.58-.09a.84.84,0,1,1,0,1.69Z"/><path class="cls-1" d="M14.07,56.12.94,56.19a.84.84,0,0,1,0-1.69l13.13-.07a.84.84,0,0,1,0,1.69Z"/><path class="cls-1" d="M114.52,61.61l-12.21.06a.84.84,0,0,1,0-1.69l12.21-.06a.84.84,0,0,1,0,1.69Z"/><path class="cls-1" d="M15.23,62.13l-11,.06a.84.84,0,0,1,0-1.69l11-.06a.84.84,0,0,1,0,1.69Z"/><path class="cls-1" d="M118.34,67.61l-17.68.09a.84.84,0,0,1,0-1.69l17.68-.09a.84.84,0,1,1,0,1.69Z"/><path class="cls-1" d="M31.55,68.07l-9.86.05a.84.84,0,0,1,0-1.69l9.86-.05a.84.84,0,0,1,0,1.69Z"/><path class="cls-1" d="M15.24,68.15l-12.62.07a.84.84,0,1,1,0-1.69l12.62-.07a.84.84,0,0,1,0,1.69Z"/><path class="cls-1" d="M113.31,73.65l-12.92.07a.84.84,0,0,1,0-1.69L113.3,72a.84.84,0,0,1,0,1.69Z"/><path class="cls-1" d="M33.69,74.07l-29.06.15a.84.84,0,0,1,0-1.69l29.06-.15a.84.84,0,0,1,0,1.69Z"/><path class="cls-1" d="M117.7,79.65l-8.86,0a.84.84,0,0,1,0-1.69l8.86,0a.84.84,0,1,1,0,1.69Z"/><path class="cls-1" d="M102.79,79.73l-9.39,0a.84.84,0,0,1,0-1.69l9.39,0a.84.84,0,1,1,0,1.69Z"/><path class="cls-1" d="M37.78,80.07l-19.66.1a.84.84,0,0,1,0-1.69l19.66-.1a.84.84,0,0,1,0,1.69Z"/><path class="cls-1" d="M12.21,80.2l-11.14.06a.84.84,0,0,1,0-1.69l11.14-.06a.84.84,0,0,1,0,1.69Z"/><path class="cls-1" d="M113.94,85.69l-17.7.09a.84.84,0,0,1,0-1.69l17.7-.09a.84.84,0,0,1,0,1.69Z"/><path class="cls-1" d="M74.34,85.9,62.68,86a.84.84,0,1,1,0-1.69l11.66-.06a.84.84,0,1,1,0,1.69Z"/><path class="cls-1" d="M33.34,86.11l-24.6.13a.84.84,0,0,1,0-1.69l24.6-.13a.84.84,0,0,1,0,1.69Z"/><path class="cls-1" d="M117.21,91.69,96,91.8a.84.84,0,0,1,0-1.69L117.2,90a.84.84,0,0,1,0,1.69Z"/><path class="cls-1" d="M72.39,91.92l-8.7,0a.84.84,0,1,1,0-1.69l8.7,0a.84.84,0,1,1,0,1.69Z"/><path class="cls-1" d="M41.37,92.09l-16,.08a.84.84,0,1,1,0-1.69l16-.08a.84.84,0,0,1,0,1.69Z"/><path class="cls-1" d="M21.61,92.19l-17.1.09a.84.84,0,1,1,0-1.69l17.1-.09a.84.84,0,1,1,0,1.69Z"/></svg>