<?xml version="1.0" encoding="utf-8"?>
<!-- Generator: Adobe Illustrator 20.1.0, SVG Export Plug-In . SVG Version: 6.00 Build 0)  -->
<svg version="1.1" id="Isolation_Mode" xmlns="http://www.w3.org/2000/svg" xmlns:xlink="http://www.w3.org/1999/xlink" x="0px"
	 y="0px" viewBox="0 0 50.3 11.7" style="enable-background:new 0 0 50.3 11.7;" xml:space="preserve">
<style type="text/css">
	.st0{fill:#50BF9E;}
	.st1{fill:none;stroke:#50BF9E;stroke-linecap:round;stroke-miterlimit:10;}
</style>
<g>
	<path class="st0" d="M45.3,8.1H28.7c-0.3,0-0.5-0.2-0.5-0.5s0.2-0.5,0.5-0.5h16.6c0.3,0,0.5,0.2,0.5,0.5S45.6,8.1,45.3,8.1z"/>
</g>
<g>
	<path class="st0" d="M22.7,8.1H12.1c-0.3,0-0.5-0.2-0.5-0.5s0.2-0.5,0.5-0.5h10.6c0.3,0,0.5,0.2,0.5,0.5S23,8.1,22.7,8.1z"/>
</g>
<g>
	<path class="st0" d="M39.2,4.6h-28c-0.3,0-0.5-0.2-0.5-0.5s0.2-0.5,0.5-0.5h28c0.3,0,0.5,0.2,0.5,0.5S39.5,4.6,39.2,4.6z"/>
</g>
<g>
	<path class="st0" d="M33.9,1H28c-0.3,0-0.5-0.2-0.5-0.5S27.7,0,28,0h5.9c0.3,0,0.5,0.2,0.5,0.5S34.2,1,33.9,1z"/>
</g>
<g>
	<path class="st0" d="M23.3,1H0.5C0.2,1,0,0.8,0,0.5S0.2,0,0.5,0h22.8c0.3,0,0.5,0.2,0.5,0.5S23.6,1,23.3,1z"/>
</g>
<g>
	<path class="st0" d="M49.8,11.7H38.5c-0.3,0-0.5-0.2-0.5-0.5s0.2-0.5,0.5-0.5h11.3c0.3,0,0.5,0.2,0.5,0.5S50.1,11.7,49.8,11.7z"/>
</g>
<g>
	<path class="st0" d="M32.4,11.7H21.7c-0.3,0-0.5-0.2-0.5-0.5s0.2-0.5,0.5-0.5h10.7c0.3,0,0.5,0.2,0.5,0.5S32.7,11.7,32.4,11.7z"/>
</g>
<g>
	<path class="st0" d="M17.6,11.7H5c-0.3,0-0.5-0.2-0.5-0.5s0.2-0.5,0.5-0.5h12.6c0.3,0,0.5,0.2,0.5,0.5S17.9,11.7,17.6,11.7z"/>
</g>
</svg>
