<?xml version="1.0" encoding="UTF-8"?>
<svg width="144px" height="18px" viewBox="0 0 144 18" version="1.1" xmlns="http://www.w3.org/2000/svg" xmlns:xlink="http://www.w3.org/1999/xlink">
    <!-- Generator: Sketch 44.1 (41455) - http://www.bohemiancoding.com/sketch -->
    <title>Left Goat</title>
    <desc>Created with Sketch.</desc>
    <defs></defs>
    <g id="Page-1" stroke="none" stroke-width="1" fill="none" fill-rule="evenodd">
        <path d="M0.888,0.2 L0.888,17 L10.176,17 L10.176,15.224 L2.808,15.224 L2.808,0.2 L0.888,0.2 Z M15.296,0.2 L15.296,17 L27.008,17 L27.008,15.224 L17.216,15.224 L17.216,9.368 L25.688,9.368 L25.688,7.616 L17.216,7.616 L17.216,1.976 L26.696,1.976 L26.696,0.2 L15.296,0.2 Z M32.92,0.2 L32.92,17 L34.84,17 L34.84,9.752 L42.688,9.752 L42.688,8 L34.84,8 L34.84,1.976 L43.6,1.976 L43.6,0.2 L32.92,0.2 Z M46.152,0.2 L46.152,1.976 L51.624,1.976 L51.624,17 L53.544,17 L53.544,1.976 L59.04,1.976 L59.04,0.2 L46.152,0.2 Z M84.112,13.904 C82.816,14.792 81.208,15.32 79.696,15.32 C75.856,15.32 72.76,12.344 72.76,8.6 C72.76,4.88 75.832,1.904 79.672,1.904 C81.544,1.904 83.392,2.624 84.76,3.848 L85.864,2.456 C84.256,1.04 82,0.152 79.672,0.152 C74.728,0.152 70.816,3.872 70.816,8.6 C70.816,13.328 74.704,17.072 79.576,17.072 C81.832,17.072 84.16,16.208 85.816,14.888 L85.816,8.792 L84.112,8.792 L84.112,13.904 Z M99.696,0.152 C104.592,0.152 108.48,3.872 108.48,8.6 C108.48,13.328 104.592,17.072 99.696,17.072 C94.776,17.072 90.888,13.328 90.888,8.6 C90.888,3.872 94.776,0.152 99.696,0.152 Z M99.696,1.928 C95.952,1.928 92.832,4.88 92.832,8.6 C92.832,12.32 95.952,15.32 99.696,15.32 C103.44,15.32 106.512,12.32 106.512,8.6 C106.512,4.88 103.44,1.928 99.696,1.928 Z M126.08,17 L124.184,12.704 L115.04,12.704 L113.168,17 L111.128,17 L118.664,0.2 L120.656,0.2 L128.168,17 L126.08,17 Z M115.832,10.928 L123.416,10.928 L119.6,2.288 L115.832,10.928 Z M130.528,0.2 L130.528,1.976 L136,1.976 L136,17 L137.92,17 L137.92,1.976 L143.416,1.976 L143.416,0.2 L130.528,0.2 Z" id="Left-Goat" fill="#49BE9F"></path>
    </g>
</svg>