<?xml version="1.0" encoding="UTF-8"?>
<svg width="120px" height="129px" viewBox="0 0 120 129" version="1.1" xmlns="http://www.w3.org/2000/svg" xmlns:xlink="http://www.w3.org/1999/xlink">
    <!-- Generator: Sketch 44.1 (41455) - http://www.bohemiancoding.com/sketch -->
    <title>logo</title>
    <desc>Created with Sketch.</desc>
    <defs></defs>
    <g id="Page-1" stroke="none" stroke-width="1" fill="none" fill-rule="evenodd">
        <g id="logo" fill-rule="nonzero" fill="#50BF9E">
            <g id="Background-Lines">
                <path d="M107.09,31.55 L79,31.7 C78.530558,31.7 78.15,31.319442 78.15,30.85 C78.15,30.380558 78.530558,30 79,30 L107.05,29.85 C107.516681,29.85 107.895,30.2283194 107.895,30.695 C107.895,31.1616806 107.516681,31.54 107.05,31.54 L107.09,31.55 Z" id="Shape"></path>
                <path d="M69,31.75 L51.16,31.84 C50.6933194,31.84 50.315,31.4616806 50.315,30.995 C50.315,30.5283194 50.6933194,30.15 51.16,30.15 L69,30.07 C69.4666806,30.07 69.845,30.4483194 69.845,30.915 C69.845,31.3816806 69.4666806,31.76 69,31.76 L69,31.75 Z" id="Shape"></path>
                <path d="M42.71,31.89 L12.3,32.05 C11.8333194,32.05 11.455,31.6716806 11.455,31.205 C11.455,30.7383194 11.8333194,30.36 12.3,30.36 L42.71,30.2 C43.1766806,30.2 43.555,30.5783194 43.555,31.045 C43.555,31.5116806 43.1766806,31.89 42.71,31.89 L42.71,31.89 Z" id="Shape"></path>
                <path d="M96.74,25.59 L49.56,25.84 C49.0933194,25.84 48.715,25.4616806 48.715,24.995 C48.715,24.5283194 49.0933194,24.15 49.56,24.15 L96.74,23.9 C97.2066806,23.9 97.585,24.2783194 97.585,24.745 C97.585,25.2116806 97.2066806,25.59 96.74,25.59 Z" id="Shape"></path>
                <path d="M41.13,25.88 L22.59,26 C22.1233194,26 21.745,25.6216806 21.745,25.155 C21.745,24.6883194 22.1233194,24.31 22.59,24.31 L41.13,24.21 C41.5966806,24.21 41.975,24.5883194 41.975,25.055 C41.975,25.5216806 41.5966806,25.9 41.13,25.9 L41.13,25.88 Z" id="Shape"></path>
                <path d="M87.75,19.62 L77.84,19.67 C77.3733194,19.67 76.995,19.2916806 76.995,18.825 C76.995,18.3583194 77.3733194,17.98 77.84,17.98 L87.75,17.93 C88.2166806,17.93 88.595,18.3083194 88.595,18.775 C88.595,19.2416806 88.2166806,19.62 87.75,19.62 Z" id="Shape"></path>
                <path d="M69.93,19.71 L31.51,19.91 C31.0433194,19.91 30.665,19.5316806 30.665,19.065 C30.665,18.5983194 31.0433194,18.22 31.51,18.22 L69.92,18 C70.3866806,18 70.765,18.3783194 70.765,18.845 C70.765,19.3116806 70.3866806,19.69 69.92,19.69 L69.93,19.71 Z" id="Shape"></path>
                <path d="M80.35,13.64 L61.56,13.74 C61.0933194,13.74 60.715,13.3616806 60.715,12.895 C60.715,12.4283194 61.0933194,12.05 61.56,12.05 L80.34,12 C80.8066806,12 81.185,12.3783194 81.185,12.845 C81.185,13.3116806 80.8066806,13.69 80.34,13.69 L80.35,13.64 Z" id="Shape"></path>
                <path d="M51.51,13.79 L38.85,13.86 C38.3833194,13.86 38.005,13.4816806 38.005,13.015 C38.005,12.5483194 38.3833194,12.17 38.85,12.17 L51.5,12.1 C51.9666806,12.1 52.345,12.4783194 52.345,12.945 C52.345,13.4116806 51.9666806,13.79 51.5,13.79 L51.51,13.79 Z" id="Shape"></path>
                <path d="M72.1,7.66 L47,7.79 C46.5333194,7.79 46.155,7.41168061 46.155,6.945 C46.155,6.47831939 46.5333194,6.1 47,6.1 L72.09,6 C72.3918894,5.99999999 72.6708468,6.16105608 72.8217915,6.42249999 C72.9727362,6.68394391 72.9727362,7.00605609 72.8217915,7.26750001 C72.6708468,7.52894392 72.3918894,7.69000001 72.09,7.69 L72.1,7.66 Z" id="Shape"></path>
                <path d="M63.85,1.69 L55.21,1.69 C54.7433194,1.69 54.365,1.31168061 54.365,0.845 C54.365,0.378319386 54.7433194,8.5727838e-17 55.21,0 L63.85,0 C64.3166806,2.8575946e-17 64.695,0.378319386 64.695,0.845 C64.695,1.31168061 64.3166806,1.69 63.85,1.69 L63.85,1.69 Z" id="Shape"></path>
                <path d="M38.59,98.12 L12.65,98.26 C12.1833194,98.26 11.805,97.8816806 11.805,97.415 C11.805,96.9483194 12.1833194,96.57 12.65,96.57 L38.59,96.43 C39.0566806,96.43 39.435,96.8083194 39.435,97.275 C39.435,97.7416806 39.0566806,98.12 38.59,98.12 Z" id="Shape"></path>
                <path d="M75.37,97.93 L60.07,98 C59.6033194,98 59.225,97.6216806 59.225,97.155 C59.225,96.6883194 59.6033194,96.31 60.07,96.31 L75.37,96.23 C75.8366806,96.23 76.215,96.6083194 76.215,97.075 C76.215,97.5416806 75.8366806,97.92 75.37,97.92 L75.37,97.93 Z" id="Shape"></path>
                <path d="M107.44,97.76 L94.2,97.83 C93.7333194,97.83 93.355,97.4516806 93.355,96.985 C93.355,96.5183194 93.7333194,96.14 94.2,96.14 L107.44,96.07 C107.906681,96.07 108.285,96.4483194 108.285,96.915 C108.285,97.3816806 107.906681,97.76 107.44,97.76 Z" id="Shape"></path>
                <path d="M41.8,104.12 L23,104.22 C22.5333194,104.22 22.155,103.841681 22.155,103.375 C22.155,102.908319 22.5333194,102.53 23,102.53 L41.8,102.43 C42.2666806,102.43 42.645,102.808319 42.645,103.275 C42.645,103.741681 42.2666806,104.12 41.8,104.12 Z" id="Shape"></path>
                <path d="M64.86,104 L50.17,104.08 C49.7033194,104.08 49.325,103.701681 49.325,103.235 C49.325,102.768319 49.7033194,102.39 50.17,102.39 L64.86,102.31 C65.3266806,102.31 65.705,102.688319 65.705,103.155 C65.705,103.621681 65.3266806,104 64.86,104 L64.86,104 Z" id="Shape"></path>
                <path d="M97.15,103.83 L70.65,103.97 C70.1833194,103.97 69.805,103.591681 69.805,103.125 C69.805,102.658319 70.1833194,102.28 70.65,102.28 L97.15,102.14 C97.6166806,102.14 97.995,102.518319 97.995,102.985 C97.995,103.451681 97.6166806,103.83 97.15,103.83 L97.15,103.83 Z" id="Shape"></path>
                <path d="M69,110 L32,110.19 C31.5333194,110.19 31.155,109.811681 31.155,109.345 C31.155,108.878319 31.5333194,108.5 32,108.5 L69,108.31 C69.4666806,108.31 69.845,108.688319 69.845,109.155 C69.845,109.621681 69.4666806,110 69,110 Z" id="Shape"></path>
                <path d="M88.23,109.9 L79.59,109.9 C79.2881105,109.9 79.0091532,109.738944 78.8582084,109.4775 C78.7072637,109.216056 78.7072637,108.893944 78.8582084,108.6325 C79.0091532,108.371056 79.2881105,108.21 79.59,108.21 L88.23,108.21 C88.6966806,108.21 89.075,108.588319 89.075,109.055 C89.075,109.521681 88.6966806,109.9 88.23,109.9 L88.23,109.9 Z" id="Shape"></path>
                <path d="M50.21,116.12 L39.39,116.18 C38.9233194,116.18 38.545,115.801681 38.545,115.335 C38.545,114.868319 38.9233194,114.49 39.39,114.49 L50.21,114.43 C50.6766806,114.43 51.055,114.808319 51.055,115.275 C51.055,115.741681 50.6766806,116.12 50.21,116.12 L50.21,116.12 Z" id="Shape"></path>
                <path d="M80.89,116 L62.38,116.1 C61.9133194,116.1 61.535,115.721681 61.535,115.255 C61.535,114.788319 61.9133194,114.41 62.38,114.41 L80.89,114.31 C81.3566806,114.31 81.735,114.688319 81.735,115.155 C81.735,115.621681 81.3566806,116 80.89,116 L80.89,116 Z" id="Shape"></path>
                <path d="M61.83,122.08 L47.63,122.15 C47.1633194,122.15 46.785,121.771681 46.785,121.305 C46.785,120.838319 47.1633194,120.46 47.63,120.46 L61.83,120.39 C62.2966806,120.39 62.675,120.768319 62.675,121.235 C62.675,121.701681 62.2966806,122.08 61.83,122.08 L61.83,122.08 Z" id="Shape"></path>
                <path d="M72.7,122 L67.63,122 C67.1633194,122 66.785,121.621681 66.785,121.155 C66.785,120.688319 67.1633194,120.31 67.63,120.31 L72.7,120.31 C73.1666806,120.31 73.545,120.688319 73.545,121.155 C73.545,121.621681 73.1666806,122 72.7,122 L72.7,122 Z" id="Shape"></path>
                <path d="M64.52,128.08 L55.88,128.08 C55.4133194,128.08 55.035,127.701681 55.035,127.235 C55.035,126.768319 55.4133194,126.39 55.88,126.39 L64.52,126.39 C64.9866806,126.39 65.365,126.768319 65.365,127.235 C65.365,127.701681 64.9866806,128.08 64.52,128.08 L64.52,128.08 Z" id="Shape"></path>
                <path d="M115.57,49.56 L98.57,49.65 C98.1033194,49.65 97.725,49.2716806 97.725,48.805 C97.725,48.3383194 98.1033194,47.96 98.57,47.96 L115.57,47.87 C116.036681,47.87 116.415,48.2483194 116.415,48.715 C116.415,49.1816806 116.036681,49.56 115.57,49.56 L115.57,49.56 Z" id="Shape"></path>
                <path d="M16.56,50.09 L6.31,50.14 C5.84331939,50.14 5.465,49.7616806 5.465,49.295 C5.465,48.8283194 5.84331939,48.45 6.31,48.45 L16.56,48.4 C17.0266806,48.4 17.405,48.7783194 17.405,49.245 C17.405,49.7116806 17.0266806,50.09 16.56,50.09 Z" id="Shape"></path>
                <path d="M6.31,50.14 L2.6,50.14 C2.13331939,50.14 1.755,49.7616806 1.755,49.295 C1.755,48.8283194 2.13331939,48.45 2.6,48.45 L6.31,48.45 C6.77668061,48.45 7.155,48.8283194 7.155,49.295 C7.155,49.7616806 6.77668061,50.14 6.31,50.14 Z" id="Shape"></path>
                <path d="M112.87,43.56 L91,43.68 C90.5360808,43.68 90.16,43.3039192 90.16,42.84 C90.16,42.3760808 90.5360808,42 91,42 L112.9,41.88 C113.366681,41.88 113.745,42.2583194 113.745,42.725 C113.745,43.1916806 113.366681,43.57 112.9,43.57 L112.87,43.56 Z" id="Shape"></path>
                <path d="M11.48,44.09 L0.88,44.15 C0.413319386,44.15 0.035,43.7716806 0.035,43.305 C0.035,42.8383194 0.413319386,42.46 0.88,42.46 L11.48,42.4 C11.9466806,42.4 12.325,42.7783194 12.325,43.245 C12.325,43.7116806 11.9466806,44.09 11.48,44.09 Z" id="Shape"></path>
                <path d="M114.67,37.53 L95.67,37.63 C95.2033194,37.63 94.825,37.2516806 94.825,36.785 C94.825,36.3183194 95.2033194,35.94 95.67,35.94 L114.67,35.84 C115.136681,35.84 115.515,36.2183194 115.515,36.685 C115.515,37.1516806 115.136681,37.53 114.67,37.53 L114.67,37.53 Z" id="Shape"></path>
                <path d="M85.33,37.69 L67.33,37.78 C66.8633194,37.78 66.485,37.4016806 66.485,36.935 C66.485,36.4683194 66.8633194,36.09 67.33,36.09 L85.33,36 C85.7966806,36 86.175,36.3783194 86.175,36.845 C86.175,37.3116806 85.7966806,37.69 85.33,37.69 L85.33,37.69 Z" id="Shape"></path>
                <path d="M60.42,37.82 L39.25,37.93 C38.7833194,37.93 38.405,37.5516806 38.405,37.085 C38.405,36.6183194 38.7833194,36.24 39.25,36.24 L60.42,36.13 C60.8866806,36.13 61.265,36.5083194 61.265,36.975 C61.265,37.4416806 60.8866806,37.82 60.42,37.82 Z" id="Shape"></path>
                <path d="M18.18,38 L0.85,38.13 C0.383319386,38.13 0.005,37.7516806 0.005,37.285 C0.005,36.8183194 0.383319386,36.44 0.85,36.44 L18.18,36.35 C18.6466806,36.35 19.025,36.7283194 19.025,37.195 C19.025,37.6616806 18.6466806,38.04 18.18,38.04 L18.18,38 Z" id="Shape"></path>
                <path d="M118.7,55.57 L102.12,55.66 C101.653319,55.66 101.275,55.2816806 101.275,54.815 C101.275,54.3483194 101.653319,53.97 102.12,53.97 L118.7,53.88 C119.166681,53.88 119.545,54.2583194 119.545,54.725 C119.545,55.1916806 119.166681,55.57 118.7,55.57 L118.7,55.57 Z" id="Shape"></path>
                <path d="M14.07,56.12 L0.94,56.19 C0.473319386,56.19 0.095,55.8116806 0.095,55.345 C0.095,54.8783194 0.473319386,54.5 0.94,54.5 L14.07,54.43 C14.5366806,54.43 14.915,54.8083194 14.915,55.275 C14.915,55.7416806 14.5366806,56.12 14.07,56.12 Z" id="Shape"></path>
                <path d="M114.52,61.61 L102.31,61.67 C101.843319,61.67 101.465,61.2916806 101.465,60.825 C101.465,60.3583194 101.843319,59.98 102.31,59.98 L114.52,59.92 C114.986681,59.92 115.365,60.2983194 115.365,60.765 C115.365,61.2316806 114.986681,61.61 114.52,61.61 L114.52,61.61 Z" id="Shape"></path>
                <path d="M15.23,62.13 L4.23,62.19 C3.76331939,62.19 3.385,61.8116806 3.385,61.345 C3.385,60.8783194 3.76331939,60.5 4.23,60.5 L15.23,60.44 C15.6966806,60.44 16.075,60.8183194 16.075,61.285 C16.075,61.7516806 15.6966806,62.13 15.23,62.13 Z" id="Shape"></path>
                <path d="M118.34,67.61 L100.66,67.7 C100.193319,67.7 99.815,67.3216806 99.815,66.855 C99.815,66.3883194 100.193319,66.01 100.66,66.01 L118.34,65.92 C118.806681,65.92 119.185,66.2983194 119.185,66.765 C119.185,67.2316806 118.806681,67.61 118.34,67.61 L118.34,67.61 Z" id="Shape"></path>
                <path d="M31.55,68.07 L21.69,68.12 C21.2233194,68.12 20.845,67.7416806 20.845,67.275 C20.845,66.8083194 21.2233194,66.43 21.69,66.43 L31.55,66.38 C32.0166806,66.38 32.395,66.7583194 32.395,67.225 C32.395,67.6916806 32.0166806,68.07 31.55,68.07 L31.55,68.07 Z" id="Shape"></path>
                <path d="M15.24,68.15 L2.62,68.22 C2.15331939,68.22 1.775,67.8416806 1.775,67.375 C1.775,66.9083194 2.15331939,66.53 2.62,66.53 L15.24,66.46 C15.7066806,66.46 16.085,66.8383194 16.085,67.305 C16.085,67.7716806 15.7066806,68.15 15.24,68.15 L15.24,68.15 Z" id="Shape"></path>
                <path d="M113.31,73.65 L100.39,73.72 C99.9233194,73.72 99.545,73.3416806 99.545,72.875 C99.545,72.4083194 99.9233194,72.03 100.39,72.03 L113.3,72 C113.766681,72 114.145,72.3783194 114.145,72.845 C114.145,73.3116806 113.766681,73.69 113.3,73.69 L113.31,73.65 Z" id="Shape"></path>
                <path d="M33.69,74.07 L4.63,74.22 C4.16331939,74.22 3.785,73.8416806 3.785,73.375 C3.785,72.9083194 4.16331939,72.53 4.63,72.53 L33.69,72.38 C34.1566806,72.38 34.535,72.7583194 34.535,73.225 C34.535,73.6916806 34.1566806,74.07 33.69,74.07 Z" id="Shape"></path>
                <path d="M117.7,79.65 L108.84,79.65 C108.373319,79.65 107.995,79.2716806 107.995,78.805 C107.995,78.3383194 108.373319,77.96 108.84,77.96 L117.7,77.96 C118.166681,77.96 118.545,78.3383194 118.545,78.805 C118.545,79.2716806 118.166681,79.65 117.7,79.65 L117.7,79.65 Z" id="Shape"></path>
                <path d="M102.79,79.73 L93.4,79.73 C92.9333194,79.73 92.555,79.3516806 92.555,78.885 C92.555,78.4183194 92.9333194,78.04 93.4,78.04 L102.79,78.04 C103.256681,78.04 103.635,78.4183194 103.635,78.885 C103.635,79.3516806 103.256681,79.73 102.79,79.73 Z" id="Shape"></path>
                <path d="M37.78,80.07 L18.12,80.17 C17.6533194,80.17 17.275,79.7916806 17.275,79.325 C17.275,78.8583194 17.6533194,78.48 18.12,78.48 L37.78,78.38 C38.2466806,78.38 38.625,78.7583194 38.625,79.225 C38.625,79.6916806 38.2466806,80.07 37.78,80.07 Z" id="Shape"></path>
                <path d="M12.21,80.2 L1.07,80.26 C0.603319386,80.26 0.225,79.8816806 0.225,79.415 C0.225,78.9483194 0.603319386,78.57 1.07,78.57 L12.21,78.51 C12.6766806,78.51 13.055,78.8883194 13.055,79.355 C13.055,79.8216806 12.6766806,80.2 12.21,80.2 L12.21,80.2 Z" id="Shape"></path>
                <path d="M113.94,85.69 L96.24,85.78 C95.7733194,85.78 95.395,85.4016806 95.395,84.935 C95.395,84.4683194 95.7733194,84.09 96.24,84.09 L113.94,84 C114.406681,84 114.785,84.3783194 114.785,84.845 C114.785,85.3116806 114.406681,85.69 113.94,85.69 L113.94,85.69 Z" id="Shape"></path>
                <path d="M74.34,85.9 L62.68,86 C62.2133194,86 61.835,85.6216806 61.835,85.155 C61.835,84.6883194 62.2133194,84.31 62.68,84.31 L74.34,84.25 C74.8066806,84.25 75.185,84.6283194 75.185,85.095 C75.185,85.5616806 74.8066806,85.94 74.34,85.94 L74.34,85.9 Z" id="Shape"></path>
                <path d="M33.34,86.11 L8.74,86.24 C8.27331939,86.24 7.895,85.8616806 7.895,85.395 C7.895,84.9283194 8.27331939,84.55 8.74,84.55 L33.34,84.42 C33.8066806,84.42 34.185,84.7983194 34.185,85.265 C34.185,85.7316806 33.8066806,86.11 33.34,86.11 Z" id="Shape"></path>
                <path d="M117.21,91.69 L96,91.8 C95.5333194,91.8 95.155,91.4216806 95.155,90.955 C95.155,90.4883194 95.5333194,90.11 96,90.11 L117.2,90 C117.666681,90 118.045,90.3783194 118.045,90.845 C118.045,91.3116806 117.666681,91.69 117.2,91.69 L117.21,91.69 Z" id="Shape"></path>
                <path d="M72.39,91.92 L63.69,91.92 C63.2233194,91.92 62.845,91.5416806 62.845,91.075 C62.845,90.6083194 63.2233194,90.23 63.69,90.23 L72.39,90.23 C72.8566806,90.23 73.235,90.6083194 73.235,91.075 C73.235,91.5416806 72.8566806,91.92 72.39,91.92 Z" id="Shape"></path>
                <path d="M41.37,92.09 L25.37,92.17 C24.9033194,92.17 24.525,91.7916806 24.525,91.325 C24.525,90.8583194 24.9033194,90.48 25.37,90.48 L41.37,90.4 C41.8366806,90.4 42.215,90.7783194 42.215,91.245 C42.215,91.7116806 41.8366806,92.09 41.37,92.09 L41.37,92.09 Z" id="Shape"></path>
                <path d="M21.61,92.19 L4.51,92.28 C4.04331939,92.28 3.665,91.9016806 3.665,91.435 C3.665,90.9683194 4.04331939,90.59 4.51,90.59 L21.61,90.5 C22.0766806,90.5 22.455,90.8783194 22.455,91.345 C22.455,91.8116806 22.0766806,92.19 21.61,92.19 L21.61,92.19 Z" id="Shape"></path>
            </g>
        </g>
    </g>
</svg>