<?xml version="1.0" encoding="UTF-8"?>
<svg width="120px" height="129px" viewBox="0 0 120 129" version="1.1" xmlns="http://www.w3.org/2000/svg" xmlns:xlink="http://www.w3.org/1999/xlink">
    <!-- Generator: Sketch 44.1 (41455) - http://www.bohemiancoding.com/sketch -->
    <title>logo</title>
    <desc>Created with Sketch.</desc>
    <defs></defs>
    <g id="Page-1" stroke="none" stroke-width="1" fill="none" fill-rule="evenodd">
        <g id="logo" fill-rule="nonzero" fill="#50BF9E">
            <g id="Goat" transform="translate(17.000000, 33.000000)">
                <path d="M8,30.14 L7.7,29.68 C7.39043349,29.1548982 7.15487456,28.5895568 7,28 C7,27.83 6.77,27.8 6.61,27.8 C6.22960844,28.3913694 5.56661345,28.7395416 4.86382788,28.7170033 C4.16104231,28.694465 3.52171848,28.3045275 3.18,27.69 C3.05254735,27.3769846 3.17817783,27.0180507 3.47301416,26.8528407 C3.76785048,26.6876306 4.13957262,26.7678756 4.34,27.04 C4.52,27.36 4.54,27.41 5.02,27.43 C5.34,27.43 5.54,26.97 5.54,26.96 L5.66,26.64 L6,26.6 C6.44400828,26.4328664 6.93652585,26.4509745 7.36706212,26.650262 C7.79759838,26.8495496 8.13010934,27.2133324 8.29,27.66 C8.36821936,27.9219134 8.46171281,28.1790204 8.57,28.43 C9.46068371,27.8602122 10.0312052,26.9044036 10.11,25.85 L10.11,25.66 C10.423808,24.5904846 11.1759306,23.7039247 12.18,23.22 C12.7624092,22.99468 13.4040152,22.9735282 14,23.16 C14.3189106,23.2957992 14.4815932,23.6524209 14.375104,23.9822777 C14.2686148,24.3121344 13.9281153,24.5063115 13.59,24.43 C13.3100256,24.3423998 13.0099744,24.3423998 12.73,24.43 C12.14502,24.7435624 11.6937418,25.2588014 11.46,25.88 L11.46,26.04 C11.2973688,27.7639975 10.1862973,29.253142 8.58,29.9 L8,30.14 Z" id="Shape"></path>
                <path d="M2.44,26.67 L2.22,26.67 C1.75729967,26.6776018 1.33215322,26.4162733 1.13,26 C0.85,25.36 1.31,24.7 1.73,24.23 C1.64510693,24.202971 1.55815253,24.1829046 1.47,24.17 C1.11924567,24.1608238 0.79481018,23.9818249 0.6,23.69 C0.464713703,23.4263414 0.464713703,23.1136586 0.6,22.85 C0.917850113,22.2427197 1.282274,21.6609788 1.69,21.11 C1.96,20.71 2.33,20.17 2.39,20.03 C2.54,19.7 3.06,18.8 3.91,17.34 L4.55,16.25 C5.13744646,15.3929411 5.55812024,14.4328549 5.79,13.42 C5.86731986,13.0610149 6.22101491,12.8326801 6.58,12.91 C6.93898509,12.9873199 7.16731986,13.3410149 7.09,13.7 C6.83074861,14.8503715 6.35936696,15.9423492 5.7,16.92 L5,18 C4.41,19 3.67,20.27 3.55,20.56 C3.30842386,21.0040043 3.03783703,21.4315983 2.74,21.84 C2.51,22.18 2.23,22.59 2.03,22.91 C2.23308081,22.9609941 2.42362961,23.0528658 2.59,23.18 C3.12334924,23.5955254 3.23764903,24.3560587 2.85,24.91 L2.8,25 C2.70450101,25.0984122 2.61437053,25.2018953 2.53,25.31 C3.88,25.31 4.4,23.76 4.42,23.69 C4.55981367,23.3842262 4.90459842,23.2294295 5.22600736,23.3281299 C5.54741631,23.4268302 5.74589785,23.7484568 5.69,24.08 C5.31251377,25.5760501 3.98256284,26.6359187 2.44,26.67 L2.44,26.67 Z" id="Shape"></path>
                <path d="M11.35,14.25 C11.1329926,14.2362257 10.9199306,14.1854967 10.72,14.1 L10.57,14 L10.46,13.87 C9.63538754,12.884553 8.63513448,12.0606157 7.51,11.44 L7.51,11.44 C7.10472239,11.2490446 6.8759058,10.8118415 6.95,10.37 C7.14,9.7 7.95,9.72 8.38,9.72 C9.64169987,9.70409226 10.8997593,9.85882684 12.12,10.18 C12.3764103,10.2187181 12.5874543,10.4019221 12.6618213,10.6503469 C12.7361884,10.8987717 12.6605232,11.1678034 12.4675632,11.3410425 C12.2746032,11.5142815 11.9990014,11.5606165 11.76,11.46 C11.0122933,11.2558476 10.2442807,11.135112 9.47,11.1 C10.1778691,11.6304644 10.8280987,12.2337702 11.41,12.9 C11.86,12.96 12.16,12.35 12.17,12.32 C12.3274012,11.9886292 12.7236292,11.8475988 13.055,12.005 C13.3863708,12.1624012 13.5274012,12.5586292 13.37,12.89 C13.025467,13.7034093 12.2332682,14.2367709 11.35,14.25 L11.35,14.25 Z" id="Shape"></path>
                <path d="M5.78,11.41 C5.52334037,11.397885 5.29704203,11.2379155 5.2,11 C4.08,8.5 2.74,3.42 8.58,0.19 C8.89072975,0.0753055858 9.2386369,0.204876558 9.39864258,0.494886852 C9.55864826,0.784897147 9.48272864,1.14830357 9.22,1.35 C3,4.79 6.3,10.21 6.41,10.46 C6.49882387,10.6705891 6.47417054,10.9119297 6.34460156,11.1002097 C6.21503257,11.2884896 5.99842432,11.3977322 5.77,11.39 L5.78,11.41 Z" id="Shape"></path>
                <path d="M8.86,9.08 C8.54800426,9.06081689 8.29073073,8.8284408 8.24,8.52 C8.24,8.47 7.5,3.32 12.15,1.06 C12.4813708,0.899837423 12.8798374,1.03862915 13.04,1.37 C13.2001626,1.70137085 13.0613708,2.09983742 12.73,2.26 C8.96,4.09 9.55,8.26 9.56,8.32 C9.58863062,8.49534777 9.54535613,8.67483306 9.43996258,8.81786716 C9.33456903,8.96090126 9.17595883,9.05540235 9,9.08 L8.86,9.08 Z" id="Shape"></path>
                <path d="M64.25,66.38 C63.9074234,66.3733504 63.5687821,66.3056222 63.25,66.18 C62.9404483,66.0196986 62.7306352,65.716219 62.69,65.37 C62.5,64.19 63.69,61.98 65.63,60.03 C65.24,60.27 64.85,60.49 64.47,60.7 C64.09,60.91 63.83,61.06 63.53,61.24 C62.39,61.94 59.28,61.8 59.25,61.79 C58.8243923,61.7507604 58.470774,61.4453628 58.37,61.03 C58.0071922,60.1466438 58.1323344,59.1379216 58.7,58.37 C59.1068474,57.9950286 59.5488915,57.6601467 60.02,57.37 C60.5374424,57.0646004 61.0116569,56.6912826 61.43,56.26 C62.5685901,54.6139248 63.5274035,52.8505128 64.29,51 C62.7809343,47.8324847 61.0914952,44.7540996 59.23,41.78 C58.36,41.3 58.23,39.5 58.18,38.46 C58.2212692,38.1240904 58.5065648,37.8717007 58.845,37.8717007 C59.1834352,37.8717007 59.4687308,38.1240904 59.51,38.46 C59.4893358,39.208038 59.618538,39.9526506 59.89,40.65 C60.18,40.8 61.03,41.58 65.61,50.65 L65.74,50.9 L65.65,51.17 C64.8352435,53.2334768 63.774226,55.1909869 62.49,57 C61.9856173,57.5820395 61.3873476,58.0755275 60.72,58.46 C60.327509,58.7014992 59.9561814,58.9758133 59.61,59.28 C59.4332087,59.6450263 59.4045399,60.064307 59.53,60.45 C60.6266691,60.5190129 61.7269076,60.393755 62.78,60.08 C63.1,59.89 63.43,59.7 63.78,59.52 C64.3828583,59.1962952 64.9671072,58.8390688 65.53,58.45 C65.53,58.45 65.97,58.08 66.72,55.56 C66.7807352,55.2027344 67.0274557,54.9050092 67.3672243,54.7789746 C67.706993,54.65294 68.0881908,54.7177436 68.3672243,54.9489746 C68.6462578,55.1802056 68.7807352,55.5427344 68.72,55.9 C68.6996595,57.6929004 68.0073707,59.4129168 66.78,60.72 C65.4751645,61.861957 64.5127967,63.3435879 64,65 C65.2092717,65.107068 66.4273681,64.9501144 67.57,64.54 C67.8523715,63.9353406 68.1869743,63.3564778 68.57,62.81 L68.91,62.34 L69.42,62.61 C69.4914874,62.6497134 69.5692983,62.676778 69.65,62.69 C69.7218919,62.5575407 69.762914,62.4105447 69.77,62.26 C69.8351935,61.8454859 70.1009254,61.4899292 70.48,61.31 C70.7370067,61.1512991 70.966641,60.9520576 71.16,60.72 C71.23,60.63 70.99,60.06 70.9,59.85 C70.6780377,59.4228146 70.5550014,58.9511752 70.54,58.47 C70.853176,57.0227216 71.2777745,55.6018212 71.81,54.22 C72.28,52.82 72.81,51.37 72.88,50.82 C72.95,50.27 73,50.21 72.48,49.67 C72.26,49.44 71.98,49.16 71.66,48.76 C70.34,47.13 70.25,42.99 70.72,39.84 C70.95,38.28 72.41,35.09 75.04,30.36 C75.2141124,29.9900035 75.4077174,29.6294976 75.62,29.28 C75.71,29.14 75.79,29 75.87,28.88 L75.87,28.82 L75.87,28.82 C76.12,28.47 76.38,28.3 76.79,28.54 C77.2,28.78 77.15,29.17 77,29.49 L77,29.49 L77,29.49 L76.87,29.74 L76.21,31 C75.6329998,32.2954714 75.29425,33.6843456 75.21,35.1 C75.189679,35.4127836 75.1462269,35.7236333 75.08,36.03 C75.1179759,36.1550146 75.1867469,36.2684868 75.28,36.36 C75.4822858,35.3307443 75.8867604,34.3518477 76.47,33.48 C78.13,30.35 80.9,25.11 78.2,20.97 C76.79,18.82 72.47,13.66 62.8,12.2 C59.86,11.76 56.88,12.68 54.26,13.49 C53.1666617,13.8571787 52.0510764,14.1544455 50.92,14.38 C49.2350797,14.7853741 47.4571542,14.4187915 46.07,13.38 C45.64,13.12 45.14,12.83 44.53,12.52 C42.12,11.32 36.74,10.02 33.8,10.71 C30.0179932,11.8117019 25.9794915,11.6466501 22.3,10.24 C20.251369,9.35212188 18.0316199,8.92866206 15.8,9 C14.8753851,8.98444044 13.9624722,9.20836248 13.15,9.65 L13.06,9.65 C12.734152,9.81844685 12.3334468,9.690848 12.165,9.365 C11.9965532,9.039152 12.124152,8.63844685 12.45,8.47 L12.53,8.47 C13.5300939,7.92714062 14.6521299,7.64835252 15.79,7.66 C18.1975666,7.60995264 20.5868798,8.08781529 22.79,9.06 C26.2255968,10.3642456 29.9929679,10.5117103 33.52,9.48 C36.79,8.71 42.52,10.08 45.14,11.39 C45.8,11.72 46.32,12.02 46.77,12.29 C47.8916353,13.154189 49.3504976,13.4496548 50.72,13.09 C51.7899025,12.8723083 52.8452642,12.5884293 53.88,12.24 C56.51,11.43 59.78,10.41 63.01,10.9 C66.41,11.41 74.81,13.34 79.33,20.25 C82.47,25.05 79.46,30.72 77.67,34.11 C77.2480628,34.8244544 76.9123833,35.586447 76.67,36.38 C76.67,37.27 76.32,37.64 76.01,37.78 C75.5164039,37.976988 74.9528116,37.8587519 74.58,37.48 C74.0265423,37.0715857 73.7453664,36.3898305 73.85,35.71 C73.8538854,35.6467263 73.8538854,35.5832737 73.85,35.52 C73.0343782,36.9479597 72.4122593,38.4780358 72,40.07 C71.5,43.42 71.78,46.89 72.65,47.96 C72.94,48.32 73.18,48.56 73.39,48.78 C74.1212054,49.3237361 74.4231645,50.2739006 74.14,51.14 C74,51.76 73.53,53.14 73.03,54.67 C72.53,56.2 71.85,58.19 71.83,58.57 C71.8745462,58.8453766 71.9622933,59.1119927 72.09,59.36 C72.5238986,60.0204667 72.5585009,60.8662988 72.18,61.56 C71.8981954,61.9071644 71.5601761,62.2046214 71.18,62.44 L71.03,62.55 C70.984159,63.091053 70.6978348,63.5829433 70.25,63.89 C69.9704969,64.0468026 69.6434936,64.096564 69.33,64.03 C69.0931098,64.3857849 68.8857502,64.7603698 68.71,65.15 C68.5041646,65.541557 68.1398894,65.8256917 67.71,65.93 C66.5900353,66.2728433 65.420402,66.4249632 64.25,66.38 L64.25,66.38 Z" id="Shape"></path>
                <path d="M48.18,45.21 C43.5,44.97 41.4,43.45 40.64,42.69 C39.339345,42.9650391 37.9899761,42.9030782 36.72,42.51 C36.3692992,42.4050659 36.170066,42.0357008 36.2750001,41.685 C36.3799342,41.3342992 36.7492992,41.1350659 37.1,41.24 L37.1,41.24 C38.2105402,41.606207 39.4054435,41.6305928 40.53,41.31 L41.06,41.05 L41.38,41.55 C41.38,41.55 43.16,44.02 49.87,43.92 C56.58,43.82 58.35,41.22 58.36,41.19 C58.468884,40.9580006 58.7005716,40.8084381 58.9568247,40.8047286 C59.2130779,40.8010191 59.4489976,40.9438126 59.5645513,41.1725631 C59.680105,41.4013136 59.6550462,41.6759409 59.5,41.88 C59.42,42.01 57.44,45.14 49.89,45.25 C49.3,45.25 48.72,45.24 48.18,45.21 Z" id="Shape"></path>
                <path d="M32.06,53.36 L32.06,53.36 C30.3499186,53.2665623 28.806639,52.3043709 27.97,50.81 C27.0856952,49.128503 26.7866236,47.2003709 27.12,45.33 C27.189632,44.8357739 27.189632,44.3342261 27.12,43.84 C27.05,43.56 26.12,43.1 25.42,42.84 C24.02,42.18 22.29,41.35 21.72,39.75 C21.36,38.75 21.04,37.4 20.72,36.11 C20.4938067,34.8400601 20.1178495,33.6014155 19.6,32.42 C19.4388999,32.2564204 19.2650158,32.1059438 19.08,31.97 C18.15,31.24 16.6,30.02 14.14,25.5 C14.0199046,25.1854848 14.1518512,24.8306932 14.4482743,24.6710808 C14.7446973,24.5114684 15.1135306,24.5966092 15.31,24.87 C17.64,29.16 19.05,30.27 19.9,30.93 C20.1473928,31.1127681 20.3782775,31.3168836 20.59,31.54 C21.12,32.12 21.48,33.54 22.02,35.81 C22.32,37.07 22.63,38.37 23.02,39.32 C23.41,40.27 24.8,41.06 26.02,41.65 C27.24,42.24 28.22,42.65 28.44,43.58 C28.5441474,44.2191183 28.5441474,44.8708817 28.44,45.51 C28.1411044,47.1055015 28.3802768,48.7550872 29.12,50.2 C29.621851,51.1148228 30.492165,51.7702893 31.51,52 C32.0995062,52.1571483 32.7223402,52.1362712 33.3,51.94 C34.2295733,50.2951431 34.9709133,48.5508137 35.51,46.74 C35.4881084,45.9948672 35.4078628,45.2525954 35.27,44.52 C35.1236626,43.8655357 35.0333362,43.1997961 35,42.53 C35.1698684,41.702168 35.5104465,40.9188385 36,40.23 C36.17,39.93 36.41,39.53 36.48,39.36 C36.2286279,38.7117758 35.8923604,38.0997691 35.48,37.54 C35.3162025,37.2356741 35.4107614,36.8566931 35.6983234,36.6649851 C35.9858854,36.4732771 36.3720828,36.5317539 36.59,36.8 C37.48,38.14 37.87,39.08 37.75,39.61 C37.5958901,40.0669243 37.3805997,40.500869 37.11,40.9 C36.7595644,41.4275786 36.4804758,41.9992058 36.28,42.6 C36.3053361,43.1603354 36.3688164,43.7182939 36.47,44.27 C36.6250343,45.0912302 36.70868,45.9243407 36.72,46.76 C36.65,48.03 34.64,52.17 34.22,52.76 C33.6127376,53.247731 32.8318139,53.4646542 32.06,53.36 L32.06,53.36 Z" id="Shape"></path>
                <path d="M27.67,65.21 C26.91,65.21 26.36,65.1 26.35,65.09 C26.0952077,65.0361481 25.8804625,64.8658329 25.77,64.63 C25.57,64.19 25.77,63.76 26.07,63.21 C26.2653669,62.852836 26.4260998,62.4777926 26.55,62.09 C26.6669146,61.5614326 26.9509318,61.0845642 27.36,60.73 C27.4992047,60.6156351 27.6118169,60.4723104 27.69,60.31 C27.91,59.88 27.97,59.76 28.24,59.59 C28.5432655,59.3786731 28.8187592,59.1300569 29.06,58.85 C29.75,58.14 29.56,55.73 29.21,54.24 C29.1243959,53.8837763 29.3437763,53.5256041 29.7,53.44 C30.0562237,53.3543959 30.4143959,53.5737763 30.5,53.93 C30.6,54.37 31.5,58.25 30.02,59.77 C29.7232754,60.1142185 29.3877096,60.422939 29.02,60.69 L28.91,60.91 C28.7588625,61.2154143 28.5480439,61.4874383 28.29,61.71 C28.0633853,61.8978166 27.910967,62.1601178 27.86,62.45 C27.7116878,62.9212397 27.5174207,63.3767624 27.28,63.81 L27.28,63.81 C28.44,63.89 30.61,63.81 31,63.5 C31.1571015,63.2315009 31.2749633,62.9418976 31.35,62.64 C31.43,62.34 31.58,61.79 32.2,61.74 C32.3792528,61.7352351 32.5581308,61.7588605 32.73,61.81 C32.8675344,61.8462699 33.0081367,61.8697037 33.15,61.88 L33.15,61.83 C33.1652016,61.3981953 33.1146229,60.9665909 33,60.55 C32.9309878,60.1875744 32.9008173,59.8188233 32.91,59.45 C32.91,58.83 32.85,56.29 32.82,55.37 C32.8110684,55.1324184 32.9295635,54.9081189 33.1308494,54.7815931 C33.3321353,54.6550673 33.5856318,54.6455373 33.7958494,54.7565931 C34.0060669,54.8676489 34.1410684,55.0824184 34.15,55.32 C34.15,55.46 34.28,58.71 34.24,59.52 C34.2350779,59.7950131 34.2585354,60.0698004 34.31,60.34 C34.4182016,60.9001078 34.4384446,61.4736577 34.37,62.04 C34.343506,62.438248 34.1421446,62.8043598 33.82,63.04 C33.4149307,63.2770956 32.9295054,63.3350568 32.48,63.2 C32.3742625,63.5721371 32.2195772,63.9285858 32.02,64.26 C31.49,65.23 29.17,65.29 27.67,65.21 Z" id="Shape"></path>
                <path d="M35.46,63.16 C35.0927306,63.16 34.795,62.8622694 34.795,62.495 C34.795,62.1277306 35.0927306,61.83 35.46,61.83 C37.38,61.74 37.46,61.07 37.46,60.63 L37.46,60.57 C37.51,59.57 38.46,59.51 39.03,59.5 L39.28,59.5 C39.3341298,58.5371952 39.1629273,57.5750367 38.78,56.69 C38.2155185,54.8286084 38.2575431,52.8359377 38.9,51 C39.21,50.26 40.11,46 40.63,43.3 C40.7255521,42.9644578 41.0626074,42.7583997 41.4048146,42.8263187 C41.7470218,42.8942377 41.979835,43.2133995 41.94,43.56 C41.8,44.26 40.59,50.41 40.13,51.56 C39.6184814,53.0613787 39.5731628,54.6823877 40,56.21 C40.11,56.51 41.07,59.21 40.34,60.3 C40.1549363,60.5950804 39.8378262,60.7816158 39.49,60.8 L39.04,60.8 L38.76,60.8 C38.76,61.48 38.43,62.99 35.53,63.13 L35.46,63.16 Z" id="Shape"></path>
                <path d="M35.89,57.89 L35.72,57.89 C35.37035,57.7755491 35.1783959,57.4005691 35.29,57.05 C35.3849761,55.8559561 35.3447207,54.6550038 35.17,53.47 C35.1432051,53.2342047 35.2442408,53.002026 35.4350481,52.8609232 C35.6258553,52.7198205 35.8774459,52.6912307 36.0950481,52.7859232 C36.3126503,52.8806158 36.4632051,53.0842047 36.49,53.32 C36.693031,54.6912714 36.7132071,56.0834208 36.55,57.46 C36.4463885,57.7311811 36.1799239,57.9047868 35.89,57.89 Z" id="Shape"></path>
                <path d="M9.35,17.94 C9.04599683,17.9122373 8.79919471,17.6824893 8.74977236,17.3812483 C8.70035001,17.0800073 8.86080415,16.7834438 9.14,16.66 C9.7104566,16.4249166 10.0597615,15.8440957 10,15.23 C9.97093268,14.8667721 10.2374851,14.5469093 10.6,14.51 C10.7752388,14.4904167 10.9510274,14.5417699 11.0881661,14.652608 C11.2253048,14.7634462 11.3123892,14.924552 11.33,15.1 C11.457523,16.2922053 10.7922268,17.4280767 9.69,17.9 C9.58215761,17.9430061 9.46487883,17.9568036 9.35,17.94 L9.35,17.94 Z" id="Shape"></path>
                <path d="M9.17,15.09 C9.18004353,15.4048263 9.04116663,15.7059839 8.79520352,15.9027544 C8.54924042,16.0995249 8.22494293,16.1689068 7.92,16.09 C7.92,16.09 6.78,15.86 7.92,14.83 L9.17,15.09 Z" id="Shape"></path>
                <path d="M23.79,30.36 C23.5013328,30.347792 23.2541621,30.149245 23.18,29.87 C22.5290955,27.2259253 23.2083443,24.4305554 25,22.38 C25.8533018,21.3009274 26.864712,20.3569446 28,19.58 C28.3056304,19.4291792 28.6757821,19.53183 28.860082,19.8185187 C29.0443819,20.1052074 28.9840951,20.4845687 28.72,20.7 L28.72,20.7 C28.66,20.7 23.09,24.39 24.44,29.52 C24.4906357,29.7250164 24.441651,29.9419068 24.3078186,30.105261 C24.1739862,30.2686152 23.9709715,30.3593124 23.76,30.35 L23.79,30.36 Z" id="Shape"></path>
                <path d="M67.63,49.36 C67.4055602,49.3490968 67.2020876,49.2247524 67.09,49.03 C64.7115987,44.5866646 63.8945762,39.4732303 64.77,34.51 C64.7835039,34.2475244 64.9492237,34.0171845 65.1937951,33.9209522 C65.4383665,33.8247198 65.7166156,33.8803697 65.9053614,34.0632654 C66.0941071,34.2461612 66.158487,34.522521 66.07,34.77 C65.2839964,39.4143171 66.0427672,44.1882502 68.23,48.36 C68.3500453,48.5716459 68.345911,48.8317382 68.2191996,49.0394618 C68.0924882,49.2471853 67.8631196,49.3698847 67.62,49.36 L67.63,49.36 Z" id="Shape"></path>
            </g>
            <g id="Background-Lines">
                <path d="M107.09,31.55 L79,31.7 C78.530558,31.7 78.15,31.319442 78.15,30.85 C78.15,30.380558 78.530558,30 79,30 L107.05,29.85 C107.516681,29.85 107.895,30.2283194 107.895,30.695 C107.895,31.1616806 107.516681,31.54 107.05,31.54 L107.09,31.55 Z" id="Shape"></path>
                <path d="M69,31.75 L51.16,31.84 C50.6933194,31.84 50.315,31.4616806 50.315,30.995 C50.315,30.5283194 50.6933194,30.15 51.16,30.15 L69,30.07 C69.4666806,30.07 69.845,30.4483194 69.845,30.915 C69.845,31.3816806 69.4666806,31.76 69,31.76 L69,31.75 Z" id="Shape"></path>
                <path d="M42.71,31.89 L12.3,32.05 C11.8333194,32.05 11.455,31.6716806 11.455,31.205 C11.455,30.7383194 11.8333194,30.36 12.3,30.36 L42.71,30.2 C43.1766806,30.2 43.555,30.5783194 43.555,31.045 C43.555,31.5116806 43.1766806,31.89 42.71,31.89 L42.71,31.89 Z" id="Shape"></path>
                <path d="M96.74,25.59 L49.56,25.84 C49.0933194,25.84 48.715,25.4616806 48.715,24.995 C48.715,24.5283194 49.0933194,24.15 49.56,24.15 L96.74,23.9 C97.2066806,23.9 97.585,24.2783194 97.585,24.745 C97.585,25.2116806 97.2066806,25.59 96.74,25.59 Z" id="Shape"></path>
                <path d="M41.13,25.88 L22.59,26 C22.1233194,26 21.745,25.6216806 21.745,25.155 C21.745,24.6883194 22.1233194,24.31 22.59,24.31 L41.13,24.21 C41.5966806,24.21 41.975,24.5883194 41.975,25.055 C41.975,25.5216806 41.5966806,25.9 41.13,25.9 L41.13,25.88 Z" id="Shape"></path>
                <path d="M87.75,19.62 L77.84,19.67 C77.3733194,19.67 76.995,19.2916806 76.995,18.825 C76.995,18.3583194 77.3733194,17.98 77.84,17.98 L87.75,17.93 C88.2166806,17.93 88.595,18.3083194 88.595,18.775 C88.595,19.2416806 88.2166806,19.62 87.75,19.62 Z" id="Shape"></path>
                <path d="M69.93,19.71 L31.51,19.91 C31.0433194,19.91 30.665,19.5316806 30.665,19.065 C30.665,18.5983194 31.0433194,18.22 31.51,18.22 L69.92,18 C70.3866806,18 70.765,18.3783194 70.765,18.845 C70.765,19.3116806 70.3866806,19.69 69.92,19.69 L69.93,19.71 Z" id="Shape"></path>
                <path d="M80.35,13.64 L61.56,13.74 C61.0933194,13.74 60.715,13.3616806 60.715,12.895 C60.715,12.4283194 61.0933194,12.05 61.56,12.05 L80.34,12 C80.8066806,12 81.185,12.3783194 81.185,12.845 C81.185,13.3116806 80.8066806,13.69 80.34,13.69 L80.35,13.64 Z" id="Shape"></path>
                <path d="M51.51,13.79 L38.85,13.86 C38.3833194,13.86 38.005,13.4816806 38.005,13.015 C38.005,12.5483194 38.3833194,12.17 38.85,12.17 L51.5,12.1 C51.9666806,12.1 52.345,12.4783194 52.345,12.945 C52.345,13.4116806 51.9666806,13.79 51.5,13.79 L51.51,13.79 Z" id="Shape"></path>
                <path d="M72.1,7.66 L47,7.79 C46.5333194,7.79 46.155,7.41168061 46.155,6.945 C46.155,6.47831939 46.5333194,6.1 47,6.1 L72.09,6 C72.3918894,5.99999999 72.6708468,6.16105608 72.8217915,6.42249999 C72.9727362,6.68394391 72.9727362,7.00605609 72.8217915,7.26750001 C72.6708468,7.52894392 72.3918894,7.69000001 72.09,7.69 L72.1,7.66 Z" id="Shape"></path>
                <path d="M63.85,1.69 L55.21,1.69 C54.7433194,1.69 54.365,1.31168061 54.365,0.845 C54.365,0.378319386 54.7433194,8.5727838e-17 55.21,0 L63.85,0 C64.3166806,2.8575946e-17 64.695,0.378319386 64.695,0.845 C64.695,1.31168061 64.3166806,1.69 63.85,1.69 L63.85,1.69 Z" id="Shape"></path>
                <path d="M38.59,98.12 L12.65,98.26 C12.1833194,98.26 11.805,97.8816806 11.805,97.415 C11.805,96.9483194 12.1833194,96.57 12.65,96.57 L38.59,96.43 C39.0566806,96.43 39.435,96.8083194 39.435,97.275 C39.435,97.7416806 39.0566806,98.12 38.59,98.12 Z" id="Shape"></path>
                <path d="M75.37,97.93 L60.07,98 C59.6033194,98 59.225,97.6216806 59.225,97.155 C59.225,96.6883194 59.6033194,96.31 60.07,96.31 L75.37,96.23 C75.8366806,96.23 76.215,96.6083194 76.215,97.075 C76.215,97.5416806 75.8366806,97.92 75.37,97.92 L75.37,97.93 Z" id="Shape"></path>
                <path d="M107.44,97.76 L94.2,97.83 C93.7333194,97.83 93.355,97.4516806 93.355,96.985 C93.355,96.5183194 93.7333194,96.14 94.2,96.14 L107.44,96.07 C107.906681,96.07 108.285,96.4483194 108.285,96.915 C108.285,97.3816806 107.906681,97.76 107.44,97.76 Z" id="Shape"></path>
                <path d="M41.8,104.12 L23,104.22 C22.5333194,104.22 22.155,103.841681 22.155,103.375 C22.155,102.908319 22.5333194,102.53 23,102.53 L41.8,102.43 C42.2666806,102.43 42.645,102.808319 42.645,103.275 C42.645,103.741681 42.2666806,104.12 41.8,104.12 Z" id="Shape"></path>
                <path d="M64.86,104 L50.17,104.08 C49.7033194,104.08 49.325,103.701681 49.325,103.235 C49.325,102.768319 49.7033194,102.39 50.17,102.39 L64.86,102.31 C65.3266806,102.31 65.705,102.688319 65.705,103.155 C65.705,103.621681 65.3266806,104 64.86,104 L64.86,104 Z" id="Shape"></path>
                <path d="M97.15,103.83 L70.65,103.97 C70.1833194,103.97 69.805,103.591681 69.805,103.125 C69.805,102.658319 70.1833194,102.28 70.65,102.28 L97.15,102.14 C97.6166806,102.14 97.995,102.518319 97.995,102.985 C97.995,103.451681 97.6166806,103.83 97.15,103.83 L97.15,103.83 Z" id="Shape"></path>
                <path d="M69,110 L32,110.19 C31.5333194,110.19 31.155,109.811681 31.155,109.345 C31.155,108.878319 31.5333194,108.5 32,108.5 L69,108.31 C69.4666806,108.31 69.845,108.688319 69.845,109.155 C69.845,109.621681 69.4666806,110 69,110 Z" id="Shape"></path>
                <path d="M88.23,109.9 L79.59,109.9 C79.2881105,109.9 79.0091532,109.738944 78.8582084,109.4775 C78.7072637,109.216056 78.7072637,108.893944 78.8582084,108.6325 C79.0091532,108.371056 79.2881105,108.21 79.59,108.21 L88.23,108.21 C88.6966806,108.21 89.075,108.588319 89.075,109.055 C89.075,109.521681 88.6966806,109.9 88.23,109.9 L88.23,109.9 Z" id="Shape"></path>
                <path d="M50.21,116.12 L39.39,116.18 C38.9233194,116.18 38.545,115.801681 38.545,115.335 C38.545,114.868319 38.9233194,114.49 39.39,114.49 L50.21,114.43 C50.6766806,114.43 51.055,114.808319 51.055,115.275 C51.055,115.741681 50.6766806,116.12 50.21,116.12 L50.21,116.12 Z" id="Shape"></path>
                <path d="M80.89,116 L62.38,116.1 C61.9133194,116.1 61.535,115.721681 61.535,115.255 C61.535,114.788319 61.9133194,114.41 62.38,114.41 L80.89,114.31 C81.3566806,114.31 81.735,114.688319 81.735,115.155 C81.735,115.621681 81.3566806,116 80.89,116 L80.89,116 Z" id="Shape"></path>
                <path d="M61.83,122.08 L47.63,122.15 C47.1633194,122.15 46.785,121.771681 46.785,121.305 C46.785,120.838319 47.1633194,120.46 47.63,120.46 L61.83,120.39 C62.2966806,120.39 62.675,120.768319 62.675,121.235 C62.675,121.701681 62.2966806,122.08 61.83,122.08 L61.83,122.08 Z" id="Shape"></path>
                <path d="M72.7,122 L67.63,122 C67.1633194,122 66.785,121.621681 66.785,121.155 C66.785,120.688319 67.1633194,120.31 67.63,120.31 L72.7,120.31 C73.1666806,120.31 73.545,120.688319 73.545,121.155 C73.545,121.621681 73.1666806,122 72.7,122 L72.7,122 Z" id="Shape"></path>
                <path d="M64.52,128.08 L55.88,128.08 C55.4133194,128.08 55.035,127.701681 55.035,127.235 C55.035,126.768319 55.4133194,126.39 55.88,126.39 L64.52,126.39 C64.9866806,126.39 65.365,126.768319 65.365,127.235 C65.365,127.701681 64.9866806,128.08 64.52,128.08 L64.52,128.08 Z" id="Shape"></path>
                <path d="M115.57,49.56 L98.57,49.65 C98.1033194,49.65 97.725,49.2716806 97.725,48.805 C97.725,48.3383194 98.1033194,47.96 98.57,47.96 L115.57,47.87 C116.036681,47.87 116.415,48.2483194 116.415,48.715 C116.415,49.1816806 116.036681,49.56 115.57,49.56 L115.57,49.56 Z" id="Shape"></path>
                <path d="M16.56,50.09 L6.31,50.14 C5.84331939,50.14 5.465,49.7616806 5.465,49.295 C5.465,48.8283194 5.84331939,48.45 6.31,48.45 L16.56,48.4 C17.0266806,48.4 17.405,48.7783194 17.405,49.245 C17.405,49.7116806 17.0266806,50.09 16.56,50.09 Z" id="Shape"></path>
                <path d="M6.31,50.14 L2.6,50.14 C2.13331939,50.14 1.755,49.7616806 1.755,49.295 C1.755,48.8283194 2.13331939,48.45 2.6,48.45 L6.31,48.45 C6.77668061,48.45 7.155,48.8283194 7.155,49.295 C7.155,49.7616806 6.77668061,50.14 6.31,50.14 Z" id="Shape"></path>
                <path d="M112.87,43.56 L91,43.68 C90.5360808,43.68 90.16,43.3039192 90.16,42.84 C90.16,42.3760808 90.5360808,42 91,42 L112.9,41.88 C113.366681,41.88 113.745,42.2583194 113.745,42.725 C113.745,43.1916806 113.366681,43.57 112.9,43.57 L112.87,43.56 Z" id="Shape"></path>
                <path d="M11.48,44.09 L0.88,44.15 C0.413319386,44.15 0.035,43.7716806 0.035,43.305 C0.035,42.8383194 0.413319386,42.46 0.88,42.46 L11.48,42.4 C11.9466806,42.4 12.325,42.7783194 12.325,43.245 C12.325,43.7116806 11.9466806,44.09 11.48,44.09 Z" id="Shape"></path>
                <path d="M114.67,37.53 L95.67,37.63 C95.2033194,37.63 94.825,37.2516806 94.825,36.785 C94.825,36.3183194 95.2033194,35.94 95.67,35.94 L114.67,35.84 C115.136681,35.84 115.515,36.2183194 115.515,36.685 C115.515,37.1516806 115.136681,37.53 114.67,37.53 L114.67,37.53 Z" id="Shape"></path>
                <path d="M85.33,37.69 L67.33,37.78 C66.8633194,37.78 66.485,37.4016806 66.485,36.935 C66.485,36.4683194 66.8633194,36.09 67.33,36.09 L85.33,36 C85.7966806,36 86.175,36.3783194 86.175,36.845 C86.175,37.3116806 85.7966806,37.69 85.33,37.69 L85.33,37.69 Z" id="Shape"></path>
                <path d="M60.42,37.82 L39.25,37.93 C38.7833194,37.93 38.405,37.5516806 38.405,37.085 C38.405,36.6183194 38.7833194,36.24 39.25,36.24 L60.42,36.13 C60.8866806,36.13 61.265,36.5083194 61.265,36.975 C61.265,37.4416806 60.8866806,37.82 60.42,37.82 Z" id="Shape"></path>
                <path d="M18.18,38 L0.85,38.13 C0.383319386,38.13 0.005,37.7516806 0.005,37.285 C0.005,36.8183194 0.383319386,36.44 0.85,36.44 L18.18,36.35 C18.6466806,36.35 19.025,36.7283194 19.025,37.195 C19.025,37.6616806 18.6466806,38.04 18.18,38.04 L18.18,38 Z" id="Shape"></path>
                <path d="M118.7,55.57 L102.12,55.66 C101.653319,55.66 101.275,55.2816806 101.275,54.815 C101.275,54.3483194 101.653319,53.97 102.12,53.97 L118.7,53.88 C119.166681,53.88 119.545,54.2583194 119.545,54.725 C119.545,55.1916806 119.166681,55.57 118.7,55.57 L118.7,55.57 Z" id="Shape"></path>
                <path d="M14.07,56.12 L0.94,56.19 C0.473319386,56.19 0.095,55.8116806 0.095,55.345 C0.095,54.8783194 0.473319386,54.5 0.94,54.5 L14.07,54.43 C14.5366806,54.43 14.915,54.8083194 14.915,55.275 C14.915,55.7416806 14.5366806,56.12 14.07,56.12 Z" id="Shape"></path>
                <path d="M114.52,61.61 L102.31,61.67 C101.843319,61.67 101.465,61.2916806 101.465,60.825 C101.465,60.3583194 101.843319,59.98 102.31,59.98 L114.52,59.92 C114.986681,59.92 115.365,60.2983194 115.365,60.765 C115.365,61.2316806 114.986681,61.61 114.52,61.61 L114.52,61.61 Z" id="Shape"></path>
                <path d="M15.23,62.13 L4.23,62.19 C3.76331939,62.19 3.385,61.8116806 3.385,61.345 C3.385,60.8783194 3.76331939,60.5 4.23,60.5 L15.23,60.44 C15.6966806,60.44 16.075,60.8183194 16.075,61.285 C16.075,61.7516806 15.6966806,62.13 15.23,62.13 Z" id="Shape"></path>
                <path d="M118.34,67.61 L100.66,67.7 C100.193319,67.7 99.815,67.3216806 99.815,66.855 C99.815,66.3883194 100.193319,66.01 100.66,66.01 L118.34,65.92 C118.806681,65.92 119.185,66.2983194 119.185,66.765 C119.185,67.2316806 118.806681,67.61 118.34,67.61 L118.34,67.61 Z" id="Shape"></path>
                <path d="M31.55,68.07 L21.69,68.12 C21.2233194,68.12 20.845,67.7416806 20.845,67.275 C20.845,66.8083194 21.2233194,66.43 21.69,66.43 L31.55,66.38 C32.0166806,66.38 32.395,66.7583194 32.395,67.225 C32.395,67.6916806 32.0166806,68.07 31.55,68.07 L31.55,68.07 Z" id="Shape"></path>
                <path d="M15.24,68.15 L2.62,68.22 C2.15331939,68.22 1.775,67.8416806 1.775,67.375 C1.775,66.9083194 2.15331939,66.53 2.62,66.53 L15.24,66.46 C15.7066806,66.46 16.085,66.8383194 16.085,67.305 C16.085,67.7716806 15.7066806,68.15 15.24,68.15 L15.24,68.15 Z" id="Shape"></path>
                <path d="M113.31,73.65 L100.39,73.72 C99.9233194,73.72 99.545,73.3416806 99.545,72.875 C99.545,72.4083194 99.9233194,72.03 100.39,72.03 L113.3,72 C113.766681,72 114.145,72.3783194 114.145,72.845 C114.145,73.3116806 113.766681,73.69 113.3,73.69 L113.31,73.65 Z" id="Shape"></path>
                <path d="M33.69,74.07 L4.63,74.22 C4.16331939,74.22 3.785,73.8416806 3.785,73.375 C3.785,72.9083194 4.16331939,72.53 4.63,72.53 L33.69,72.38 C34.1566806,72.38 34.535,72.7583194 34.535,73.225 C34.535,73.6916806 34.1566806,74.07 33.69,74.07 Z" id="Shape"></path>
                <path d="M117.7,79.65 L108.84,79.65 C108.373319,79.65 107.995,79.2716806 107.995,78.805 C107.995,78.3383194 108.373319,77.96 108.84,77.96 L117.7,77.96 C118.166681,77.96 118.545,78.3383194 118.545,78.805 C118.545,79.2716806 118.166681,79.65 117.7,79.65 L117.7,79.65 Z" id="Shape"></path>
                <path d="M102.79,79.73 L93.4,79.73 C92.9333194,79.73 92.555,79.3516806 92.555,78.885 C92.555,78.4183194 92.9333194,78.04 93.4,78.04 L102.79,78.04 C103.256681,78.04 103.635,78.4183194 103.635,78.885 C103.635,79.3516806 103.256681,79.73 102.79,79.73 Z" id="Shape"></path>
                <path d="M37.78,80.07 L18.12,80.17 C17.6533194,80.17 17.275,79.7916806 17.275,79.325 C17.275,78.8583194 17.6533194,78.48 18.12,78.48 L37.78,78.38 C38.2466806,78.38 38.625,78.7583194 38.625,79.225 C38.625,79.6916806 38.2466806,80.07 37.78,80.07 Z" id="Shape"></path>
                <path d="M12.21,80.2 L1.07,80.26 C0.603319386,80.26 0.225,79.8816806 0.225,79.415 C0.225,78.9483194 0.603319386,78.57 1.07,78.57 L12.21,78.51 C12.6766806,78.51 13.055,78.8883194 13.055,79.355 C13.055,79.8216806 12.6766806,80.2 12.21,80.2 L12.21,80.2 Z" id="Shape"></path>
                <path d="M113.94,85.69 L96.24,85.78 C95.7733194,85.78 95.395,85.4016806 95.395,84.935 C95.395,84.4683194 95.7733194,84.09 96.24,84.09 L113.94,84 C114.406681,84 114.785,84.3783194 114.785,84.845 C114.785,85.3116806 114.406681,85.69 113.94,85.69 L113.94,85.69 Z" id="Shape"></path>
                <path d="M74.34,85.9 L62.68,86 C62.2133194,86 61.835,85.6216806 61.835,85.155 C61.835,84.6883194 62.2133194,84.31 62.68,84.31 L74.34,84.25 C74.8066806,84.25 75.185,84.6283194 75.185,85.095 C75.185,85.5616806 74.8066806,85.94 74.34,85.94 L74.34,85.9 Z" id="Shape"></path>
                <path d="M33.34,86.11 L8.74,86.24 C8.27331939,86.24 7.895,85.8616806 7.895,85.395 C7.895,84.9283194 8.27331939,84.55 8.74,84.55 L33.34,84.42 C33.8066806,84.42 34.185,84.7983194 34.185,85.265 C34.185,85.7316806 33.8066806,86.11 33.34,86.11 Z" id="Shape"></path>
                <path d="M117.21,91.69 L96,91.8 C95.5333194,91.8 95.155,91.4216806 95.155,90.955 C95.155,90.4883194 95.5333194,90.11 96,90.11 L117.2,90 C117.666681,90 118.045,90.3783194 118.045,90.845 C118.045,91.3116806 117.666681,91.69 117.2,91.69 L117.21,91.69 Z" id="Shape"></path>
                <path d="M72.39,91.92 L63.69,91.92 C63.2233194,91.92 62.845,91.5416806 62.845,91.075 C62.845,90.6083194 63.2233194,90.23 63.69,90.23 L72.39,90.23 C72.8566806,90.23 73.235,90.6083194 73.235,91.075 C73.235,91.5416806 72.8566806,91.92 72.39,91.92 Z" id="Shape"></path>
                <path d="M41.37,92.09 L25.37,92.17 C24.9033194,92.17 24.525,91.7916806 24.525,91.325 C24.525,90.8583194 24.9033194,90.48 25.37,90.48 L41.37,90.4 C41.8366806,90.4 42.215,90.7783194 42.215,91.245 C42.215,91.7116806 41.8366806,92.09 41.37,92.09 L41.37,92.09 Z" id="Shape"></path>
                <path d="M21.61,92.19 L4.51,92.28 C4.04331939,92.28 3.665,91.9016806 3.665,91.435 C3.665,90.9683194 4.04331939,90.59 4.51,90.59 L21.61,90.5 C22.0766806,90.5 22.455,90.8783194 22.455,91.345 C22.455,91.8116806 22.0766806,92.19 21.61,92.19 L21.61,92.19 Z" id="Shape"></path>
            </g>
        </g>
    </g>
</svg>