<?xml version="1.0" encoding="utf-8"?>
<!-- Generator: Adobe Illustrator 20.1.0, SVG Export Plug-In . SVG Version: 6.00 Build 0)  -->
<svg version="1.1" id="Layer_1" xmlns="http://www.w3.org/2000/svg" xmlns:xlink="http://www.w3.org/1999/xlink" x="0px" y="0px"
	 viewBox="0 0 80.2 66.3" style="enable-background:new 0 0 80.2 66.3;" xml:space="preserve">
<style type="text/css">
	.st0{fill:#FFFFFF;}
</style>
<g>
	<g>
		<g>
			<g>
				<path class="st0" d="M7.5,30l-0.3-0.5c0-0.1-0.4-0.6-0.7-1.6c0-0.2-0.2-0.2-0.4-0.2c-0.3,0.5-0.8,1-1.7,1
					c-1.1-0.1-1.5-0.5-1.8-1.1c-0.2-0.3-0.1-0.7,0.3-0.9c0.3-0.2,0.7-0.1,0.9,0.3c0.2,0.3,0.2,0.4,0.7,0.4c0.3,0,0.5-0.5,0.5-0.5
					l0.1-0.3l0.3-0.1c0.7-0.2,1.9-0.1,2.3,1.1c0.1,0.3,0.2,0.6,0.3,0.8c1.2-0.7,1.4-1.9,1.5-2.6c0-0.1,0-0.1,0-0.2
					c0.2-1,1.2-2.1,2.1-2.4c0.8-0.3,1.7-0.1,1.8-0.1c0.3,0.1,0.5,0.5,0.4,0.8c-0.1,0.3-0.5,0.5-0.8,0.4c0,0-0.5-0.1-0.9,0
					c-0.5,0.2-1.2,1-1.3,1.5c0,0,0,0.1,0,0.2c-0.1,0.9-0.5,2.9-2.9,3.9L7.5,30z"/>
			</g>
		</g>
	</g>
	<g>
		<g>
			<g>
				<path class="st0" d="M1.9,26.5c-0.1,0-0.1,0-0.2,0c-0.4,0-0.9-0.2-1.1-0.6c-0.3-0.6,0.2-1.3,0.6-1.8c-0.1,0-0.2,0-0.3-0.1
					c-0.3,0-0.7-0.1-0.9-0.5c-0.1-0.2-0.2-0.5,0-0.8c0.1-0.3,0.5-0.9,1.1-1.7c0.3-0.4,0.6-0.9,0.7-1.1c0.1-0.3,0.7-1.2,1.5-2.7
					c0.2-0.4,0.4-0.8,0.6-1.1c0.8-1.3,1-1.8,1.2-2.8c0.1-0.4,0.4-0.6,0.8-0.5c0.4,0.1,0.6,0.4,0.5,0.8c-0.3,1.2-0.6,1.8-1.4,3.2
					c-0.2,0.3-0.4,0.7-0.6,1.1c-0.6,1-1.3,2.3-1.5,2.6c-0.1,0.2-0.4,0.6-0.8,1.3c-0.2,0.3-0.5,0.8-0.7,1.1c0.2,0.1,0.4,0.1,0.6,0.3
					c0.7,0.5,0.5,1.3,0.3,1.7l-0.1,0.1C2.2,25,2.1,25.1,2,25.2c1.4,0,1.9-1.5,1.9-1.6c0.1-0.3,0.5-0.5,0.8-0.4
					c0.3,0.1,0.5,0.5,0.4,0.8C4.9,24.9,3.9,26.6,1.9,26.5z"/>
			</g>
		</g>
	</g>
	<g>
		<g>
			<g>
				<path class="st0" d="M10.9,14.1c-0.2,0-0.4-0.1-0.6-0.1l-0.2-0.1L10,13.8c0,0-1.3-1.6-2.9-2.4l0,0c-0.5-0.3-0.7-0.7-0.6-1.1
					c0.2-0.7,1-0.7,1.4-0.6c1.4,0,2.5,0.1,3.7,0.5c0.4,0.1,0.6,0.5,0.5,0.8c-0.1,0.4-0.5,0.6-0.8,0.5C10.5,11.1,9.7,11,8.9,11
					c0.9,0.7,1.7,1.5,1.9,1.8c0.4,0.1,0.7-0.6,0.8-0.6c0.2-0.3,0.6-0.5,0.9-0.3c0.3,0.2,0.5,0.6,0.3,0.9
					C12.6,13.3,11.9,14.2,10.9,14.1z"/>
			</g>
		</g>
	</g>
	<g>
		<g>
			<g>
				<path class="st0" d="M5.3,11.3c-0.2,0-0.5-0.2-0.6-0.4C3.6,8.4,2.3,3.3,8.1,0.1C8.4-0.1,8.8,0,9,0.3c0.2,0.3,0.1,0.7-0.3,0.9
					c-6.2,3.4-2.9,8.9-2.8,9.1c0.1,0.3,0,0.7-0.3,0.9C5.5,11.3,5.4,11.3,5.3,11.3z"/>
			</g>
		</g>
	</g>
	<g>
		<g>
			<g>
				<path class="st0" d="M8.4,9c-0.3,0-0.6-0.2-0.6-0.6c0-0.1-0.7-5.2,3.9-7.5c0.3-0.2,0.7,0,0.9,0.3c0.2,0.3,0,0.7-0.3,0.9
					C8.5,4,9.1,8.1,9.1,8.2c0.1,0.4-0.2,0.7-0.6,0.8C8.5,9,8.4,9,8.4,9z"/>
			</g>
		</g>
	</g>
	<g>
		<g>
			<g>
				<path class="st0" d="M63.8,66.3c-0.4,0-0.8-0.1-1-0.2c-0.3-0.2-0.5-0.4-0.6-0.8c-0.2-1.2,1-3.4,2.9-5.3
					c-0.4,0.2-0.8,0.5-1.2,0.7c-0.3,0.2-0.6,0.4-0.9,0.5c-1.1,0.7-4.2,0.6-4.3,0.6c-0.2,0-0.6-0.1-0.9-0.8c-0.3-0.7-0.3-2,0.3-2.7
					c0.3-0.3,0.8-0.7,1.3-1c0.5-0.4,1.2-0.8,1.4-1.1c1.7-2.5,2.6-4.6,2.9-5.3c-2.1-4.2-4.5-8.6-5.1-9.2c-0.9-0.5-1-2.3-1.1-3.3
					c0-0.4,0.3-0.7,0.7-0.7c0.4,0,0.7,0.3,0.7,0.7c0,0.9,0.2,2,0.4,2.2c0.3,0.2,1.1,0.9,5.7,10l0.1,0.3l-0.1,0.3
					c0,0.1-1,2.7-3.2,5.9c-0.4,0.5-1.1,1-1.8,1.5c-0.4,0.3-0.9,0.6-1.1,0.8c-0.2,0.2-0.2,0.9-0.1,1.2c1,0,2.8-0.1,3.3-0.4
					c0.3-0.2,0.7-0.4,1-0.6c0.6-0.3,1.2-0.7,1.8-1.1c0,0,0.4-0.4,1.2-2.9c0.1-0.5,0.6-0.8,1.1-0.7c0.5,0.1,0.9,0.5,0.8,1.1
					c-0.1,2-0.8,3.7-1.9,4.8c-2,1.9-2.7,3.7-2.8,4.3c0.8,0.2,3.1-0.2,3.6-0.5c0.3-0.8,1-1.7,1-1.7l0.3-0.5l0.5,0.3
					c0.1,0.1,0.2,0.1,0.2,0.1c0.1-0.1,0.1-0.3,0.1-0.4c0-0.5,0.4-0.7,0.7-0.9c0.2-0.2,0.5-0.3,0.7-0.6c0.1-0.1-0.2-0.7-0.3-0.9
					c-0.2-0.4-0.4-0.9-0.4-1.4c0-0.5,0.4-1.7,1.3-4.2c0.5-1.4,1-2.8,1.1-3.4c0.1-0.6,0.1-0.6-0.4-1.1c-0.2-0.2-0.5-0.5-0.8-0.9
					c-1.3-1.6-1.4-5.8-0.9-8.9c0.2-1.6,1.7-4.7,4.3-9.5c0.2-0.4,0.4-0.7,0.6-1.1c0.1-0.1,0.2-0.3,0.2-0.4c0,0,0-0.1,0-0.1l0,0
					c0.3-0.4,0.5-0.5,0.9-0.3c0.4,0.3,0.4,0.6,0.2,0.9l0,0c0,0,0,0,0,0c0,0.1-0.1,0.2-0.1,0.2c-0.2,0.4-0.5,0.8-0.7,1.2
					c-0.8,1.7-0.9,3.1-1,4.1c0,0.4-0.1,0.7-0.1,0.9c0,0.1,0.1,0.2,0.2,0.3c0-0.6,0.4-1.4,1.2-2.9c1.7-3.1,4.4-8.4,1.7-12.5
					c-1.4-2.2-5.7-7.3-15.4-8.8c-2.9-0.4-5.9,0.5-8.5,1.3c-1.2,0.4-2.3,0.7-3.3,0.9c-2.5,0.4-3.4-0.1-4.8-1
					c-0.4-0.3-0.9-0.6-1.5-0.9c-2.4-1.2-7.8-2.5-10.7-1.8c-3.2,0.7-6.7,1.3-11.5-0.5c-3.2-1.2-4.5-1.3-6.5-1.3
					c-1.4,0-2.2,0.4-2.6,0.7l-0.1,0c-0.3,0.2-0.7,0-0.9-0.3c-0.2-0.3,0-0.7,0.3-0.9l0.1,0c0.5-0.2,1.5-0.8,3.3-0.8
					c2.2,0,3.7,0.2,7,1.4C26.7,10.6,30,10,33,9.3c3.3-0.8,9,0.6,11.6,1.9c0.7,0.3,1.2,0.6,1.6,0.9c1.3,0.8,1.9,1.1,3.9,0.8
					c0.9-0.2,2-0.5,3.2-0.8c2.6-0.8,5.9-1.8,9.1-1.3c3.4,0.5,11.8,2.4,16.3,9.4c3.1,4.8,0.1,10.5-1.7,13.9c-0.5,0.9-1,2-1,2.3
					c0,0.9-0.3,1.3-0.7,1.4c-0.4,0.2-0.9,0.1-1.4-0.3c-0.5-0.4-0.9-1.1-0.7-1.8c0,0,0-0.1,0-0.2c-1.4,2.8-1.7,4-1.8,4.6
					c-0.5,3.4-0.2,6.8,0.7,7.9c0.3,0.4,0.5,0.6,0.7,0.8c0.7,0.7,1,1.1,0.7,2.4c-0.1,0.6-0.6,2-1.1,3.5c-0.5,1.5-1.2,3.5-1.2,3.9
					c0,0.2,0.1,0.5,0.3,0.8c0.3,0.6,0.6,1.5,0.1,2.2c-0.3,0.4-0.7,0.7-1,0.9c0,0-0.1,0.1-0.2,0.1c0,0.3-0.2,1-0.8,1.3
					c-0.2,0.1-0.5,0.2-0.9,0.1c-0.2,0.3-0.5,0.8-0.6,1.1c-0.1,0.3-0.5,0.6-1,0.8C66.4,66.1,64.9,66.3,63.8,66.3z M67.1,64.4
					L67.1,64.4L67.1,64.4z M58.8,41.7L58.8,41.7L58.8,41.7z M74.6,35.9L74.6,35.9L74.6,35.9z"/>
			</g>
		</g>
	</g>
	<g>
		<g>
			<g>
				<path class="st0" d="M47.7,45.1c-4.7-0.2-6.8-1.8-7.5-2.5c-1.6,0.5-3.7-0.1-3.9-0.2c-0.4-0.1-0.6-0.5-0.4-0.8
					c0.1-0.4,0.5-0.6,0.8-0.4l0,0c0.6,0.2,2.4,0.6,3.4,0.1l0.5-0.3l0.3,0.5c0,0,1.8,2.5,8.5,2.4c6.7-0.1,8.5-2.7,8.5-2.7
					c0.2-0.3,0.6-0.4,0.9-0.2c0.3,0.2,0.4,0.6,0.2,0.9c-0.1,0.1-2.1,3.3-9.6,3.4C48.8,45.1,48.2,45.1,47.7,45.1z"/>
			</g>
		</g>
	</g>
	<g>
		<g>
			<g>
				<path class="st0" d="M31.6,53.2C31.6,53.2,31.5,53.2,31.6,53.2c-1.8-0.1-3.3-1-4.1-2.6c-1.2-2.1-1-4-0.9-5.5
					c0.1-0.6,0.1-1.2,0-1.5c-0.1-0.3-1-0.7-1.7-1c-1.4-0.7-3.1-1.5-3.7-3.1c-0.4-1-0.7-2.4-1-3.6c-0.3-1.4-0.8-3.3-1.1-3.7
					c-0.1-0.1-0.3-0.3-0.5-0.4c-0.9-0.7-2.5-1.9-4.9-6.5c-0.2-0.3-0.1-0.7,0.3-0.9c0.3-0.2,0.7-0.1,0.9,0.3c2.3,4.3,3.7,5.4,4.6,6.1
					c0.3,0.2,0.5,0.4,0.7,0.6c0.5,0.6,0.9,2,1.4,4.3c0.3,1.3,0.6,2.6,1,3.5c0.4,1.1,1.8,1.7,3,2.3c1.2,0.6,2.2,1,2.4,1.9
					c0.1,0.6,0.1,1.2,0,1.9c-0.1,1.3-0.3,3,0.7,4.7c0.7,1.2,1.7,1.6,2.4,1.8c0.9,0.2,1.6,0,1.8-0.1c0.4-0.6,2.2-4.3,2.2-5.2
					c0-0.5-0.1-1.4-0.2-2.2c-0.1-0.8-0.2-1.5-0.2-1.9c0-0.6,0.4-1.3,1-2.3c0.2-0.3,0.4-0.7,0.5-0.9c-0.1-0.3-0.5-1.1-1-1.8
					c-0.2-0.3-0.1-0.7,0.2-0.9c0.3-0.2,0.7-0.1,0.9,0.2c0.9,1.3,1.3,2.3,1.2,2.8c-0.1,0.3-0.3,0.7-0.6,1.3c-0.3,0.5-0.8,1.4-0.8,1.7
					c0,0.3,0.1,1,0.2,1.7c0.1,0.9,0.3,1.9,0.2,2.5c-0.1,1.3-2.1,5.4-2.5,6C33.4,53.1,32.4,53.3,31.6,53.2z M36,39.3L36,39.3L36,39.3
					z"/>
			</g>
		</g>
	</g>
	<g>
		<g>
			<g>
				<path class="st0" d="M27.2,65.1c-0.8,0-1.3-0.1-1.3-0.1c-0.3-0.1-0.5-0.2-0.6-0.5c-0.2-0.4,0-0.9,0.3-1.4
					c0.2-0.3,0.4-0.7,0.5-1.1c0.2-0.8,0.5-1.1,0.8-1.4c0.1-0.1,0.2-0.2,0.3-0.4c0.2-0.4,0.3-0.6,0.6-0.7c0.1,0,0.3-0.2,0.8-0.7
					c0.7-0.7,0.5-3.1,0.1-4.6c-0.1-0.4,0.1-0.7,0.5-0.8c0.4-0.1,0.7,0.1,0.8,0.5c0.1,0.4,1,4.3-0.5,5.8c-0.6,0.6-0.9,0.8-1,0.9
					c0,0.1-0.1,0.1-0.1,0.2c-0.2,0.4-0.5,0.6-0.6,0.8c-0.2,0.2-0.3,0.3-0.4,0.7c-0.1,0.5-0.4,1-0.6,1.4c0,0,0,0,0,0
					c1.2,0.1,3.3,0,3.7-0.3c0.2-0.4,0.3-0.6,0.3-0.9c0.1-0.3,0.2-0.8,0.8-0.9c0.2,0,0.4,0,0.5,0.1c0.1,0,0.3,0.1,0.4,0.1
					c0,0,0,0,0-0.1c0.1-0.5,0-0.9-0.1-1.3c-0.1-0.3-0.1-0.7-0.1-1.1c0-0.6-0.1-3.2-0.1-4.1c0-0.4,0.3-0.7,0.6-0.7
					c0.4,0,0.7,0.3,0.7,0.6c0,0.1,0.1,3.4,0.1,4.2c0,0.3,0,0.5,0.1,0.8c0.1,0.5,0.2,1,0.1,1.7c-0.1,0.5-0.3,0.8-0.6,1
					c-0.4,0.3-1,0.2-1.3,0.2c-0.1,0.3-0.2,0.6-0.5,1.1C31,65.1,28.7,65.2,27.2,65.1z M30.5,63.4L30.5,63.4L30.5,63.4z"/>
			</g>
		</g>
	</g>
	<g>
		<g>
			<g>
				<path class="st0" d="M35,63c-0.3,0-0.6-0.3-0.6-0.6c0-0.4,0.3-0.7,0.6-0.7c1.9-0.1,2-0.8,2-1.2l0-0.1c0.1-1,1-1.1,1.6-1.1
					c0.1,0,0.2,0,0.3,0c0.1-0.4,0-1.5-0.5-2.8c-0.7-1.9-0.4-4.5,0.2-5.7c0.3-0.7,1.2-5,1.7-7.7c0.1-0.4,0.4-0.6,0.8-0.5
					c0.4,0.1,0.6,0.4,0.5,0.8c-0.1,0.7-1.3,6.9-1.8,8c-0.4,1-0.7,3.3-0.1,4.7c0.1,0.3,1.1,3,0.3,4.1c-0.2,0.3-0.5,0.5-0.9,0.5
					c-0.2,0-0.3,0-0.5,0c-0.1,0-0.2,0-0.3,0C38.2,61.4,37.9,62.9,35,63C35,63,35,63,35,63z"/>
			</g>
		</g>
	</g>
	<g>
		<g>
			<g>
				<path class="st0" d="M35.4,57.8c-0.1,0-0.1,0-0.2,0c-0.3-0.1-0.5-0.5-0.4-0.8c0.1-0.4,0-2.2-0.1-3.6c0-0.4,0.2-0.7,0.6-0.7
					c0.4,0,0.7,0.2,0.7,0.6c0.1,0.8,0.3,3.3,0.1,4.1C36,57.6,35.7,57.8,35.4,57.8z"/>
			</g>
		</g>
	</g>
	<g>
		<g>
			<g>
				<path class="st0" d="M8.9,17.8c-0.3,0-0.5-0.2-0.6-0.4c-0.1-0.3,0-0.7,0.4-0.9c0.9-0.4,0.8-1.3,0.8-1.4c0-0.4,0.2-0.7,0.6-0.7
					c0.4,0,0.7,0.2,0.7,0.6c0.1,0.7-0.2,2.2-1.6,2.8C9.1,17.8,9,17.8,8.9,17.8z"/>
			</g>
		</g>
	</g>
	<g>
		<g>
			<g>
				<path class="st0" d="M8.7,15c0,0,0,1.2-1.3,1c0,0-1.1-0.2,0-1.3L8.7,15z"/>
			</g>
		</g>
	</g>
	<g>
		<g>
			<g>
				<path class="st0" d="M23.3,30.2c-0.3,0-0.5-0.2-0.6-0.5c-0.7-2.5,0-5.1,1.8-7.5c1.4-1.7,2.9-2.8,3-2.8c0.3-0.2,0.7-0.1,0.9,0.2
					c0.2,0.3,0.1,0.7-0.2,0.9l0,0c-0.1,0-5.6,3.7-4.3,8.8c0.1,0.4-0.1,0.7-0.5,0.8C23.4,30.2,23.4,30.2,23.3,30.2z"/>
			</g>
		</g>
	</g>
	<g>
		<g>
			<g>
				<path class="st0" d="M67.1,49.2c-0.2,0-0.4-0.1-0.5-0.3c-0.2-0.3-3.9-6.7-2.3-14.5c0.1-0.4,0.4-0.6,0.8-0.5
					c0.4,0.1,0.6,0.4,0.5,0.8c-1.4,7.3,2.1,13.5,2.2,13.6c0.2,0.3,0.1,0.7-0.2,0.9C67.4,49.2,67.3,49.2,67.1,49.2z"/>
			</g>
		</g>
	</g>
</g>
</svg>
